<svg xmlns="http://www.w3.org/2000/svg" fill="none" viewBox="3 17 475 80.94">
<path d="M10.8506 26.75H22.8975L36.8194 73.4375L50.6944 26.75H61.335L41.9288 95H31.6631L10.8506 26.75ZM5.97563 26.75H17.46L19.2413 71.75V95H5.97563V26.75ZM56.085 26.75H67.6163V95H54.3975V71.75L56.085 26.75ZM101.486 38.9375L86.8144 95H72.33L93.6581 26.75H102.705L101.486 38.9375ZM113.064 95L98.2988 38.9375L96.9394 26.75H106.127L127.643 95H113.064ZM113.58 69.5469V80.9375H82.7831V69.5469H113.58ZM176.606 59.1406V87.2656C175.637 88.2969 174.216 89.5 172.341 90.875C170.497 92.2187 168.075 93.4062 165.075 94.4375C162.106 95.4375 158.481 95.9375 154.2 95.9375C150.419 95.9375 146.981 95.3437 143.887 94.1562C140.825 92.9687 138.184 91.1719 135.966 88.7656C133.778 86.3281 132.106 83.2969 130.95 79.6719C129.794 76.0156 129.216 71.6875 129.216 66.6875V55.0625C129.216 50.125 129.762 45.8281 130.856 42.1719C131.981 38.4844 133.606 35.4219 135.731 32.9844C137.856 30.5469 140.387 28.7344 143.325 27.5469C146.294 26.3594 149.637 25.7656 153.356 25.7656C158.481 25.7656 162.684 26.625 165.966 28.3437C169.278 30.0625 171.778 32.6094 173.466 35.9844C175.184 39.3594 176.216 43.5 176.559 48.4062H163.294C163.075 45.5312 162.591 43.2812 161.841 41.6562C161.122 40.0312 160.106 38.875 158.794 38.1875C157.481 37.4687 155.778 37.1094 153.684 37.1094C151.872 37.1094 150.294 37.4375 148.95 38.0937C147.606 38.7187 146.481 39.75 145.575 41.1875C144.669 42.625 143.997 44.4687 143.559 46.7187C143.122 48.9687 142.903 51.7187 142.903 54.9687V66.6875C142.903 69.9062 143.153 72.6562 143.653 74.9375C144.153 77.2187 144.887 79.0781 145.856 80.5156C146.856 81.9531 148.106 83 149.606 83.6562C151.137 84.2812 152.934 84.5937 154.997 84.5937C156.653 84.5937 157.981 84.4219 158.981 84.0781C159.981 83.7344 160.778 83.375 161.372 83C161.997 82.5937 162.512 82.2812 162.919 82.0625V69.5H153.122V59.1406H176.606ZM197.867 26.75V95H184.226V26.75H197.867ZM239.237 72.2656H252.877C252.69 77.3906 251.659 81.7187 249.784 85.25C247.909 88.75 245.237 91.4062 241.768 93.2187C238.331 95.0312 234.174 95.9375 229.299 95.9375C225.518 95.9375 222.159 95.3125 219.221 94.0625C216.284 92.7812 213.784 90.9062 211.721 88.4375C209.659 85.9687 208.096 82.9219 207.034 79.2969C206.002 75.6406 205.487 71.4375 205.487 66.6875V55.1094C205.487 50.3594 206.034 46.1562 207.127 42.5C208.252 38.8437 209.846 35.7812 211.909 33.3125C214.002 30.8125 216.518 28.9375 219.456 27.6875C222.424 26.4062 225.768 25.7656 229.487 25.7656C234.456 25.7656 238.612 26.7031 241.956 28.5781C245.299 30.4531 247.877 33.1875 249.69 36.7812C251.534 40.3437 252.643 44.7031 253.018 49.8594H239.331C239.237 46.6094 238.862 44.0625 238.206 42.2187C237.581 40.3437 236.581 39.0312 235.206 38.2812C233.831 37.5 231.924 37.1094 229.487 37.1094C227.674 37.1094 226.112 37.4375 224.799 38.0937C223.487 38.7187 222.409 39.7344 221.565 41.1406C220.721 42.5469 220.096 44.3906 219.69 46.6719C219.315 48.9531 219.127 51.7344 219.127 55.0156V66.6875C219.127 69.9062 219.299 72.6562 219.643 74.9375C219.987 77.1875 220.534 79.0312 221.284 80.4687C222.034 81.9062 223.049 82.9531 224.331 83.6094C225.643 84.2656 227.299 84.5937 229.299 84.5937C231.612 84.5937 233.471 84.25 234.877 83.5625C236.315 82.875 237.377 81.6406 238.065 79.8594C238.752 78.0781 239.143 75.5469 239.237 72.2656ZM291.555 26.75V95H277.821V26.75H291.555ZM312.93 55.7656V67.1094H288.086V55.7656H312.93ZM315.555 26.75V38.1406H288.086V26.75H315.555ZM368.644 55.5781V66.9687C368.644 71.7812 368.05 76 366.862 79.625C365.706 83.2187 364.05 86.2344 361.894 88.6719C359.769 91.0781 357.191 92.8906 354.159 94.1094C351.159 95.3281 347.831 95.9375 344.175 95.9375C340.519 95.9375 337.175 95.3281 334.144 94.1094C331.144 92.8906 328.55 91.0781 326.362 88.6719C324.206 86.2344 322.534 83.2187 321.347 79.625C320.159 76 319.566 71.7812 319.566 66.9687V55.5781C319.566 50.6406 320.144 46.3281 321.3 42.6406C322.456 38.9219 324.128 35.8281 326.316 33.3594C328.503 30.8594 331.097 28.9844 334.097 27.7344C337.097 26.4531 340.425 25.8125 344.081 25.8125C347.737 25.8125 351.066 26.4531 354.066 27.7344C357.066 28.9844 359.659 30.8594 361.847 33.3594C364.034 35.8281 365.706 38.9219 366.862 42.6406C368.05 46.3281 368.644 50.6406 368.644 55.5781ZM355.003 66.9687V55.4844C355.003 52.2344 354.769 49.4687 354.3 47.1875C353.831 44.875 353.128 42.9844 352.191 41.5156C351.253 40.0469 350.112 38.9687 348.769 38.2812C347.425 37.5937 345.862 37.25 344.081 37.25C342.3 37.25 340.722 37.5937 339.347 38.2812C338.003 38.9687 336.862 40.0469 335.925 41.5156C335.019 42.9844 334.331 44.875 333.862 47.1875C333.425 49.4687 333.206 52.2344 333.206 55.4844V66.9687C333.206 70.0937 333.441 72.7656 333.909 74.9844C334.378 77.2031 335.081 79.0156 336.019 80.4219C336.956 81.8281 338.097 82.875 339.441 83.5625C340.816 84.2187 342.394 84.5469 344.175 84.5469C345.925 84.5469 347.472 84.2187 348.816 83.5625C350.191 82.875 351.331 81.8281 352.237 80.4219C353.144 79.0156 353.831 77.2031 354.3 74.9844C354.769 72.7656 355.003 70.0937 355.003 66.9687ZM423.701 55.5781V66.9687C423.701 71.7812 423.107 76 421.92 79.625C420.764 83.2187 419.107 86.2344 416.951 88.6719C414.826 91.0781 412.248 92.8906 409.217 94.1094C406.217 95.3281 402.889 95.9375 399.232 95.9375C395.576 95.9375 392.232 95.3281 389.201 94.1094C386.201 92.8906 383.607 91.0781 381.42 88.6719C379.264 86.2344 377.592 83.2187 376.404 79.625C375.217 76 374.623 71.7812 374.623 66.9687V55.5781C374.623 50.6406 375.201 46.3281 376.357 42.6406C377.514 38.9219 379.186 35.8281 381.373 33.3594C383.561 30.8594 386.154 28.9844 389.154 27.7344C392.154 26.4531 395.482 25.8125 399.139 25.8125C402.795 25.8125 406.123 26.4531 409.123 27.7344C412.123 28.9844 414.717 30.8594 416.904 33.3594C419.092 35.8281 420.764 38.9219 421.92 42.6406C423.107 46.3281 423.701 50.6406 423.701 55.5781ZM410.061 66.9687V55.4844C410.061 52.2344 409.826 49.4687 409.357 47.1875C408.889 44.875 408.186 42.9844 407.248 41.5156C406.311 40.0469 405.17 38.9687 403.826 38.2812C402.482 37.5937 400.92 37.25 399.139 37.25C397.357 37.25 395.779 37.5937 394.404 38.2812C393.061 38.9687 391.92 40.0469 390.982 41.5156C390.076 42.9844 389.389 44.875 388.92 47.1875C388.482 49.4687 388.264 52.2344 388.264 55.4844V66.9687C388.264 70.0937 388.498 72.7656 388.967 74.9844C389.436 77.2031 390.139 79.0156 391.076 80.4219C392.014 81.8281 393.154 82.875 394.498 83.5625C395.873 84.2187 397.451 84.5469 399.232 84.5469C400.982 84.5469 402.529 84.2187 403.873 83.5625C405.248 82.875 406.389 81.8281 407.295 80.4219C408.201 79.0156 408.889 77.2031 409.357 74.9844C409.826 72.7656 410.061 70.0937 410.061 66.9687ZM448.618 95H436.571L436.665 83.6562H448.618C451.931 83.6562 454.509 83.0625 456.352 81.875C458.196 80.6875 459.493 78.8125 460.243 76.25C461.024 73.6875 461.415 70.3281 461.415 66.1719V55.5312C461.415 52.375 461.212 49.7031 460.806 47.5156C460.399 45.2969 459.712 43.5156 458.743 42.1719C457.774 40.7969 456.477 39.7812 454.852 39.125C453.227 38.4687 451.212 38.1406 448.806 38.1406H436.337V26.75H448.806C452.743 26.75 456.321 27.3906 459.54 28.6719C462.759 29.9531 465.524 31.8281 467.837 34.2969C470.149 36.7344 471.931 39.75 473.181 43.3437C474.431 46.9375 475.056 51.0312 475.056 55.625V66.1719C475.056 70.7969 474.431 74.8906 473.181 78.4531C471.931 82.0156 470.149 85.0312 467.837 87.5C465.556 89.9375 462.79 91.7969 459.54 93.0781C456.29 94.3594 452.649 95 448.618 95ZM444.54 26.75V95H430.806V26.75H444.54Z" fill="#007F73"/>
<path d="M10.8506 26.75V24.75H8.14982L8.9376 27.3334L10.8506 26.75ZM22.8975 26.75L24.8141 26.1785L24.3881 24.75H22.8975V26.75ZM36.8194 73.4375L34.9028 74.009L36.8226 80.4473L38.7365 74.0072L36.8194 73.4375ZM50.6944 26.75V24.75H49.2023L48.7772 26.1802L50.6944 26.75ZM61.335 26.75L63.2587 27.297L63.983 24.75H61.335V26.75ZM41.9288 95V97H43.4394L43.8525 95.547L41.9288 95ZM31.6631 95L29.7501 95.5834L30.1821 97H31.6631V95ZM5.97563 26.75V24.75H3.97563V26.75H5.97563ZM17.46 26.75L19.4584 26.6709L19.3824 24.75H17.46V26.75ZM19.2413 71.75H21.2413V71.7104L21.2397 71.6709L19.2413 71.75ZM19.2413 95V97H21.2413V95H19.2413ZM5.97563 95H3.97563V97H5.97563V95ZM56.085 26.75V24.75H54.1586L54.0864 26.6751L56.085 26.75ZM67.6163 26.75H69.6163V24.75H67.6163V26.75ZM67.6163 95V97H69.6163V95H67.6163ZM54.3975 95H52.3975V97H54.3975V95ZM54.3975 71.75L52.3989 71.6751L52.3975 71.7125V71.75H54.3975ZM10.8506 28.75H22.8975V24.75H10.8506V28.75ZM20.9809 27.3215L34.9028 74.009L38.736 72.866L24.8141 26.1785L20.9809 27.3215ZM38.7365 74.0072L52.6115 27.3197L48.7772 26.1802L34.9023 72.8677L38.7365 74.0072ZM50.6944 28.75H61.335V24.75H50.6944V28.75ZM59.4113 26.203L40.005 94.453L43.8525 95.547L63.2587 27.297L59.4113 26.203ZM41.9288 93H31.6631V97H41.9288V93ZM33.5762 94.4166L12.7637 26.1666L8.9376 27.3334L29.7501 95.5834L33.5762 94.4166ZM5.97563 28.75H17.46V24.75H5.97563V28.75ZM15.4616 26.8291L17.2428 71.8291L21.2397 71.6709L19.4584 26.6709L15.4616 26.8291ZM17.2413 71.75V95H21.2413V71.75H17.2413ZM19.2413 93H5.97563V97H19.2413V93ZM7.97563 95V26.75H3.97563V95H7.97563ZM56.085 28.75H67.6163V24.75H56.085V28.75ZM65.6163 26.75V95H69.6163V26.75H65.6163ZM67.6163 93H54.3975V97H67.6163V93ZM56.3975 95V71.75H52.3975V95H56.3975ZM56.3961 71.8249L58.0836 26.8249L54.0864 26.6751L52.3989 71.6751L56.3961 71.8249ZM101.486 38.9375L103.421 39.4439L103.461 39.2923L103.476 39.1365L101.486 38.9375ZM86.8144 95V97H88.3583L88.7492 95.5063L86.8144 95ZM72.33 95L70.421 94.4034L69.6096 97H72.33V95ZM93.6581 26.75V24.75H92.1877L91.7492 26.1534L93.6581 26.75ZM102.705 26.75L104.695 26.949L104.915 24.75H102.705V26.75ZM113.064 95L111.13 95.5094L111.523 97H113.064V95ZM98.2988 38.9375L96.3111 39.1592L96.3273 39.305L96.3647 39.4469L98.2988 38.9375ZM96.9394 26.75V24.75H94.7039L94.9517 26.9717L96.9394 26.75ZM106.127 26.75L108.034 26.1487L107.593 24.75H106.127V26.75ZM127.643 95V97H130.37L129.55 94.3987L127.643 95ZM113.58 69.5469H115.58V67.5469H113.58V69.5469ZM113.58 80.9375V82.9375H115.58V80.9375H113.58ZM82.7831 80.9375H80.7831V82.9375H82.7831V80.9375ZM82.7831 69.5469V67.5469H80.7831V69.5469H82.7831ZM99.5514 38.4311L84.8795 94.4936L88.7492 95.5063L103.421 39.4439L99.5514 38.4311ZM86.8144 93H72.33V97H86.8144V93ZM74.239 95.5965L95.5671 27.3465L91.7492 26.1534L70.421 94.4034L74.239 95.5965ZM93.6581 28.75H102.705V24.75H93.6581V28.75ZM100.715 26.551L99.4962 38.7385L103.476 39.1365L104.695 26.949L100.715 26.551ZM114.998 94.4906L100.233 38.4281L96.3647 39.4469L111.13 95.5094L114.998 94.4906ZM100.286 38.7158L98.927 26.5283L94.9517 26.9717L96.3111 39.1592L100.286 38.7158ZM96.9394 28.75H106.127V24.75H96.9394V28.75ZM104.219 27.3513L125.735 95.6013L129.55 94.3987L108.034 26.1487L104.219 27.3513ZM127.643 93H113.064V97H127.643V93ZM111.58 69.5469V80.9375H115.58V69.5469H111.58ZM113.58 78.9375H82.7831V82.9375H113.58V78.9375ZM84.7831 80.9375V69.5469H80.7831V80.9375H84.7831ZM82.7831 71.5469H113.58V67.5469H82.7831V71.5469ZM176.606 59.1406H178.606V57.1406H176.606V59.1406ZM176.606 87.2656L178.064 88.635L178.606 88.0577V87.2656H176.606ZM172.341 90.875L173.519 92.4913L173.523 92.4878L172.341 90.875ZM165.075 94.4375L165.713 96.3329L165.725 96.3289L165.075 94.4375ZM143.888 94.1562L143.164 96.021L143.171 96.0234L143.888 94.1562ZM135.966 88.7656L134.477 90.1014L134.486 90.1115L134.495 90.1214L135.966 88.7656ZM130.95 79.6719L129.043 80.2749L129.045 80.2796L130.95 79.6719ZM130.856 42.1719L128.943 41.5883L128.94 41.5987L130.856 42.1719ZM143.325 27.5469L142.582 25.6899L142.575 25.6927L143.325 27.5469ZM165.966 28.3437L165.038 30.1154L165.045 30.119L165.966 28.3437ZM173.466 35.9844L171.677 36.8788L171.68 36.8854L171.683 36.892L173.466 35.9844ZM176.559 48.4062V50.4062H178.704L178.554 48.2665L176.559 48.4062ZM163.294 48.4062L161.3 48.558L161.44 50.4062H163.294V48.4062ZM161.841 41.6562L160.012 42.4653L160.018 42.4799L160.025 42.4944L161.841 41.6562ZM158.794 38.1875L157.833 39.9417L157.849 39.9506L157.866 39.9592L158.794 38.1875ZM148.95 38.0937L149.793 39.9072L149.811 39.8992L149.828 39.8909L148.95 38.0937ZM145.856 80.5156L144.198 81.6333L144.206 81.6456L144.214 81.6577L145.856 80.5156ZM149.606 83.6562L148.805 85.4886L148.827 85.4985L148.85 85.5079L149.606 83.6562ZM161.372 83L162.44 84.691L162.451 84.684L162.462 84.6769L161.372 83ZM162.919 82.0625L163.867 83.8234L164.919 83.2571V82.0625H162.919ZM162.919 69.5H164.919V67.5H162.919V69.5ZM153.122 69.5H151.122V71.5H153.122V69.5ZM153.122 59.1406V57.1406H151.122V59.1406H153.122ZM174.606 59.1406V87.2656H178.606V59.1406H174.606ZM175.149 85.8963C174.3 86.7996 172.988 87.9199 171.158 89.2622L173.523 92.4878C175.443 91.0801 176.975 89.7941 178.064 88.635L175.149 85.8963ZM171.163 89.2587C169.529 90.4491 167.304 91.5564 164.425 92.5461L165.725 96.3289C168.846 95.2561 171.464 93.9884 173.519 92.4913L171.163 89.2587ZM164.437 92.5421C161.733 93.4526 158.338 93.9375 154.2 93.9375V97.9375C158.624 97.9375 162.479 97.4224 165.713 96.3329L164.437 92.5421ZM154.2 93.9375C150.63 93.9375 147.439 93.3773 144.604 92.2891L143.171 96.0234C146.523 97.3102 150.208 97.9375 154.2 97.9375V93.9375ZM144.611 92.2915C141.832 91.214 139.447 89.5908 137.436 87.4099L134.495 90.1214C136.922 92.7529 139.818 94.7235 143.164 96.021L144.611 92.2915ZM137.454 87.4298C135.484 85.2341 133.94 82.4629 132.855 79.0641L129.045 80.2796C130.273 84.1308 132.073 87.4221 134.477 90.1014L137.454 87.4298ZM132.857 79.0688C131.778 75.6566 131.216 71.5414 131.216 66.6875H127.216C127.216 71.8335 127.81 76.3747 129.043 80.2749L132.857 79.0688ZM131.216 66.6875V55.0625H127.216V66.6875H131.216ZM131.216 55.0625C131.216 50.2654 131.748 46.17 132.772 42.7451L128.94 41.5987C127.777 45.4862 127.216 49.9846 127.216 55.0625H131.216ZM132.769 42.7555C133.828 39.2864 135.331 36.4871 137.239 34.2986L134.224 31.6701C131.882 34.3567 130.135 37.6824 128.943 41.5883L132.769 42.7555ZM137.239 34.2986C139.162 32.0932 141.435 30.4682 144.075 29.4011L142.575 25.6927C139.34 27.0005 136.551 29.0006 134.224 31.6701L137.239 34.2986ZM144.068 29.4038C146.765 28.3249 149.851 27.7656 153.356 27.7656V23.7656C149.424 23.7656 145.822 24.3938 142.582 25.6899L144.068 29.4038ZM153.356 27.7656C158.275 27.7656 162.131 28.593 165.038 30.1154L166.894 26.5721C163.238 24.657 158.687 23.7656 153.356 23.7656V27.7656ZM165.045 30.119C167.978 31.6409 170.176 33.8772 171.677 36.8788L175.254 35.0899C173.38 31.3416 170.579 28.4841 166.887 26.5685L165.045 30.119ZM171.683 36.892C173.25 39.9681 174.234 43.8311 174.564 48.546L178.554 48.2665C178.197 43.1689 177.119 38.7507 175.248 35.0768L171.683 36.892ZM176.559 46.4062H163.294V50.4062H176.559V46.4062ZM165.288 48.2545C165.061 45.269 164.549 42.751 163.657 40.8181L160.025 42.4944C160.633 43.8115 161.089 45.7935 161.3 48.558L165.288 48.2545ZM163.67 40.8472C162.806 38.8941 161.51 37.3527 159.722 36.4158L157.866 39.9592C158.702 40.3973 159.438 41.1684 160.012 42.4653L163.67 40.8472ZM159.754 36.4333C158.053 35.5017 155.987 35.1094 153.684 35.1094V39.1094C155.569 39.1094 156.909 39.4358 157.833 39.9417L159.754 36.4333ZM153.684 35.1094C151.631 35.1094 149.741 35.4816 148.072 36.2966L149.828 39.8909C150.846 39.3934 152.113 39.1094 153.684 39.1094V35.1094ZM148.107 36.2803C146.365 37.0903 144.964 38.407 143.883 40.1209L147.267 42.2541C147.999 41.093 148.847 40.3472 149.793 39.9072L148.107 36.2803ZM143.883 40.1209C142.808 41.827 142.065 43.9235 141.596 46.337L145.523 47.1005C145.928 45.014 146.53 43.423 147.267 42.2541L143.883 40.1209ZM141.596 46.337C141.126 48.7528 140.903 51.6391 140.903 54.9687H144.903C144.903 51.7984 145.117 49.1847 145.523 47.1005L141.596 46.337ZM140.903 54.9687V66.6875H144.903V54.9687H140.903ZM140.903 66.6875C140.903 70.0004 141.16 72.9023 141.7 75.3657L145.607 74.5093C145.147 72.4102 144.903 69.8121 144.903 66.6875H140.903ZM141.7 75.3657C142.236 77.8129 143.048 79.9278 144.198 81.6333L147.515 79.3979C146.727 78.2284 146.07 76.6246 145.607 74.5093L141.7 75.3657ZM144.214 81.6577C145.41 83.3765 146.942 84.6739 148.805 85.4886L150.408 81.8239C149.27 81.3261 148.302 80.5297 147.498 79.3735L144.214 81.6577ZM148.85 85.5079C150.673 86.2518 152.737 86.5937 154.997 86.5937V82.5937C153.132 82.5937 151.602 82.3107 150.362 81.8046L148.85 85.5079ZM154.997 86.5937C156.764 86.5937 158.338 86.414 159.631 85.9695L158.331 82.1867C157.624 82.4298 156.542 82.5937 154.997 82.5937V86.5937ZM159.631 85.9695C160.712 85.598 161.667 85.1791 162.44 84.691L160.304 81.309C159.889 81.5709 159.25 81.8708 158.331 82.1867L159.631 85.9695ZM162.462 84.6769C163.065 84.2848 163.529 84.0053 163.867 83.8234L161.971 80.3016C161.496 80.5572 160.929 80.9027 160.282 81.3231L162.462 84.6769ZM164.919 82.0625V69.5H160.919V82.0625H164.919ZM162.919 67.5H153.122V71.5H162.919V67.5ZM155.122 69.5V59.1406H151.122V69.5H155.122ZM153.122 61.1406H176.606V57.1406H153.122V61.1406ZM197.867 26.75H199.867V24.75H197.867V26.75ZM197.867 95V97H199.867V95H197.867ZM184.226 95H182.226V97H184.226V95ZM184.226 26.75V24.75H182.226V26.75H184.226ZM195.867 26.75V95H199.867V26.75H195.867ZM197.867 93H184.226V97H197.867V93ZM186.226 95V26.75H182.226V95H186.226ZM184.226 28.75H197.867V24.75H184.226V28.75ZM239.237 72.2656V70.2656H237.293L237.238 72.2085L239.237 72.2656ZM252.877 72.2656L254.876 72.3387L254.952 70.2656H252.877V72.2656ZM249.784 85.25L251.547 86.1944L251.55 86.1879L249.784 85.25ZM241.768 93.2187L240.842 91.4461L240.835 91.4496L241.768 93.2187ZM219.221 94.0625L218.422 95.8957L218.43 95.8993L218.438 95.9028L219.221 94.0625ZM207.034 79.2969L205.109 79.8398L205.112 79.8496L205.114 79.8594L207.034 79.2969ZM207.127 42.5L205.216 41.9118L205.214 41.9193L205.211 41.9268L207.127 42.5ZM211.909 33.3125L210.375 32.0284L210.374 32.0302L211.909 33.3125ZM219.456 27.6875L220.239 29.5278L220.248 29.5238L219.456 27.6875ZM249.69 36.7812L247.904 37.6819L247.909 37.6912L247.914 37.7005L249.69 36.7812ZM253.018 49.8594V51.8594H255.169L255.013 49.7143L253.018 49.8594ZM239.331 49.8594L237.331 49.917L237.387 51.8594H239.331V49.8594ZM238.206 42.2187L236.308 42.8512L236.315 42.8704L236.321 42.8894L238.206 42.2187ZM235.206 38.2812L234.218 40.0202L234.233 40.0287L234.248 40.037L235.206 38.2812ZM224.799 38.0937L225.659 39.8995L225.677 39.8912L225.694 39.8826L224.799 38.0937ZM219.69 46.6719L217.721 46.3212L217.719 46.3343L217.716 46.3475L219.69 46.6719ZM219.643 74.9375L217.665 75.2355L217.666 75.2395L219.643 74.9375ZM224.331 83.6094L223.419 85.3895L223.428 85.3939L223.436 85.3982L224.331 83.6094ZM234.877 83.5625L234.015 81.7582L234.007 81.7619L233.999 81.7657L234.877 83.5625ZM239.237 74.2656H252.877V70.2656H239.237V74.2656ZM250.879 72.1925C250.699 77.0979 249.716 81.1123 248.017 84.3121L251.55 86.1879C253.601 82.3252 254.681 77.6833 254.876 72.3387L250.879 72.1925ZM248.021 84.3056C246.332 87.4573 243.949 89.8224 240.842 91.4461L242.694 94.9913C246.524 92.9901 249.485 90.0427 251.547 86.1944L248.021 84.3056ZM240.835 91.4496C237.749 93.0767 233.93 93.9375 229.299 93.9375V97.9375C234.418 97.9375 238.912 96.9858 242.701 94.9879L240.835 91.4496ZM229.299 93.9375C225.738 93.9375 222.653 93.3492 220.004 92.2222L218.438 95.9028C221.665 97.2758 225.298 97.9375 229.299 97.9375V93.9375ZM220.021 92.2293C217.369 91.0726 215.12 89.3867 213.256 87.1552L210.186 89.7198C212.447 92.4258 215.199 94.4899 218.422 95.8957L220.021 92.2293ZM213.256 87.1552C211.398 84.9309 209.951 82.1409 208.953 78.7343L205.114 79.8594C206.241 83.7028 207.92 87.0066 210.186 89.7198L213.256 87.1552ZM208.959 78.7539C207.988 75.312 207.487 71.2977 207.487 66.6875H203.487C203.487 71.5773 204.017 75.9692 205.109 79.8398L208.959 78.7539ZM207.487 66.6875V55.1094H203.487V66.6875H207.487ZM207.487 55.1094C207.487 50.5082 208.017 46.5045 209.044 43.0732L205.211 41.9268C204.05 45.808 203.487 50.2106 203.487 55.1094H207.487ZM209.039 43.0882C210.1 39.6388 211.581 36.8247 213.444 34.5948L210.374 32.0302C208.112 34.7378 206.405 38.0487 205.216 41.9118L209.039 43.0882ZM213.442 34.5966C215.338 32.3332 217.598 30.6515 220.239 29.5278L218.673 25.8472C215.438 27.2235 212.667 29.2918 210.375 32.0284L213.442 34.5966ZM220.248 29.5238C222.932 28.3656 226 27.7656 229.487 27.7656V23.7656C225.536 23.7656 221.917 24.4469 218.663 25.8512L220.248 29.5238ZM229.487 27.7656C234.212 27.7656 238.008 28.6576 240.977 30.3226L242.934 26.8337C239.216 24.7487 234.699 23.7656 229.487 23.7656V27.7656ZM240.977 30.3226C243.956 31.9929 246.262 34.4248 247.904 37.6819L251.476 35.8806C249.493 31.9502 246.643 28.9133 242.934 26.8337L240.977 30.3226ZM247.914 37.7005C249.603 40.9638 250.663 45.0436 251.023 50.0044L255.013 49.7143C254.624 44.3626 253.465 39.7237 251.466 35.862L247.914 37.7005ZM253.018 47.8594H239.331V51.8594H253.018V47.8594ZM241.33 49.8017C241.233 46.4615 240.847 43.6762 240.09 41.5481L236.321 42.8894C236.876 44.4488 237.24 46.7572 237.331 49.917L241.33 49.8017ZM240.103 41.5863C239.362 39.3624 238.09 37.5765 236.163 36.5255L234.248 40.037C235.071 40.486 235.8 41.3251 236.308 42.8512L240.103 41.5863ZM236.194 36.5423C234.397 35.5215 232.099 35.1094 229.487 35.1094V39.1094C231.749 39.1094 233.264 39.4785 234.218 40.0202L236.194 36.5423ZM229.487 35.1094C227.435 35.1094 225.553 35.481 223.905 36.3049L225.694 39.8826C226.671 39.394 227.913 39.1094 229.487 39.1094V35.1094ZM223.94 36.288C222.227 37.1033 220.869 38.4127 219.85 40.1116L223.28 42.1696C223.948 41.0561 224.746 40.3342 225.659 39.8995L223.94 36.288ZM219.85 40.1116C218.841 41.7936 218.154 43.8916 217.721 46.3212L221.659 47.0225C222.039 44.8897 222.602 43.3001 223.28 42.1696L219.85 40.1116ZM217.716 46.3475C217.318 48.7701 217.127 51.6668 217.127 55.0156H221.127C221.127 51.8019 221.312 49.1362 221.663 46.9963L217.716 46.3475ZM217.127 55.0156V66.6875H221.127V55.0156H217.127ZM217.127 66.6875C217.127 69.9702 217.302 72.8256 217.665 75.2355L221.621 74.6395C221.296 72.4869 221.127 69.8423 221.127 66.6875H217.127ZM217.666 75.2395C218.031 77.6262 218.627 79.7001 219.511 81.3939L223.057 79.5436C222.441 78.3624 221.943 76.7488 221.62 74.6354L217.666 75.2395ZM219.511 81.3939C220.427 83.1504 221.723 84.5209 223.419 85.3895L225.242 81.8293C224.376 81.3853 223.64 80.6621 223.057 79.5436L219.511 81.3939ZM223.436 85.3982C225.108 86.2343 227.096 86.5937 229.299 86.5937V82.5937C227.503 82.5937 226.178 82.2969 225.225 81.8205L223.436 85.3982ZM229.299 86.5937C231.783 86.5937 233.977 86.2289 235.756 85.3593L233.999 81.7657C232.965 82.2711 231.441 82.5937 229.299 82.5937V86.5937ZM235.74 85.3668C237.727 84.4168 239.098 82.7367 239.931 80.5795L236.199 79.1392C235.657 80.5445 234.903 81.3332 234.015 81.7582L235.74 85.3668ZM239.931 80.5795C240.738 78.4871 241.14 75.6922 241.236 72.3227L237.238 72.2085C237.146 75.4016 236.767 77.6691 236.199 79.1392L239.931 80.5795ZM291.555 26.75H293.555V24.75H291.555V26.75ZM291.555 95V97H293.555V95H291.555ZM277.821 95H275.821V97H277.821V95ZM277.821 26.75V24.75H275.821V26.75H277.821ZM312.93 55.7656H314.93V53.7656H312.93V55.7656ZM312.93 67.1094V69.1094H314.93V67.1094H312.93ZM288.086 67.1094H286.086V69.1094H288.086V67.1094ZM288.086 55.7656V53.7656H286.086V55.7656H288.086ZM315.555 26.75H317.555V24.75H315.555V26.75ZM315.555 38.1406V40.1406H317.555V38.1406H315.555ZM288.086 38.1406H286.086V40.1406H288.086V38.1406ZM288.086 26.75V24.75H286.086V26.75H288.086ZM289.555 26.75V95H293.555V26.75H289.555ZM291.555 93H277.821V97H291.555V93ZM279.821 95V26.75H275.821V95H279.821ZM277.821 28.75H291.555V24.75H277.821V28.75ZM310.93 55.7656V67.1094H314.93V55.7656H310.93ZM312.93 65.1094H288.086V69.1094H312.93V65.1094ZM290.086 67.1094V55.7656H286.086V67.1094H290.086ZM288.086 57.7656H312.93V53.7656H288.086V57.7656ZM313.555 26.75V38.1406H317.555V26.75H313.555ZM315.555 36.1406H288.086V40.1406H315.555V36.1406ZM290.086 38.1406V26.75H286.086V38.1406H290.086ZM288.086 28.75H315.555V24.75H288.086V28.75ZM366.862 79.625L364.962 79.0024L364.959 79.0124L366.862 79.625ZM361.894 88.6719L360.396 87.3467L360.395 87.348L361.894 88.6719ZM354.159 94.1094L353.413 92.2537L353.407 92.2564L354.159 94.1094ZM334.144 94.1094L333.391 95.9623L333.398 95.965L334.144 94.1094ZM326.362 88.6719L324.864 89.997L324.873 90.0072L324.883 90.0172L326.362 88.6719ZM321.347 79.625L319.446 80.2476L319.448 80.2525L321.347 79.625ZM321.3 42.6406L323.208 43.239L323.21 43.2344L321.3 42.6406ZM326.316 33.3594L327.813 34.6858L327.821 34.6764L326.316 33.3594ZM334.097 27.7344L334.866 29.5805L334.874 29.5771L334.882 29.5737L334.097 27.7344ZM354.066 27.7344L353.28 29.5737L353.288 29.5771L353.296 29.5805L354.066 27.7344ZM361.847 33.3594L360.342 34.6764L360.35 34.6857L361.847 33.3594ZM366.862 42.6406L364.953 43.2344L364.956 43.2441L364.959 43.2537L366.862 42.6406ZM354.3 47.1875L352.34 47.5848L352.341 47.59L354.3 47.1875ZM339.347 38.2812L338.452 36.4924L338.444 36.4965L338.436 36.5008L339.347 38.2812ZM335.925 41.5156L334.239 40.4396L334.231 40.4524L334.223 40.4654L335.925 41.5156ZM333.862 47.1875L331.902 46.7902L331.9 46.8005L331.898 46.8108L333.862 47.1875ZM339.441 83.5625L338.53 85.343L338.554 85.3556L338.579 85.3675L339.441 83.5625ZM348.816 83.5625L349.693 85.3596L349.702 85.3555L349.71 85.3514L348.816 83.5625ZM366.644 55.5781V66.9687H370.644V55.5781H366.644ZM366.644 66.9687C366.644 71.6225 366.069 75.623 364.962 79.0024L368.763 80.2476C370.031 76.377 370.644 71.94 370.644 66.9687H366.644ZM364.959 79.0124C363.874 82.3849 362.342 85.1467 360.396 87.3467L363.392 89.997C365.758 87.3221 367.539 84.0526 368.766 80.2376L364.959 79.0124ZM360.395 87.348C358.48 89.5165 356.161 91.1491 353.413 92.2537L354.905 95.965C358.22 94.6322 361.058 92.6397 363.393 89.9958L360.395 87.348ZM353.407 92.2564C350.675 93.3663 347.606 93.9375 344.175 93.9375V97.9375C348.056 97.9375 351.644 97.2899 354.912 95.9623L353.407 92.2564ZM344.175 93.9375C340.744 93.9375 337.657 93.3664 334.89 92.2537L333.398 95.965C336.693 97.2898 340.293 97.9375 344.175 97.9375V93.9375ZM334.896 92.2564C332.175 91.1508 329.829 89.5123 327.842 87.3265L324.883 90.0172C327.271 92.644 330.112 94.6304 333.391 95.9623L334.896 92.2564ZM327.86 87.3467C325.911 85.1426 324.362 82.3754 323.246 78.9975L319.448 80.2525C320.707 84.0621 322.502 87.3262 324.864 89.997L327.86 87.3467ZM323.247 79.0024C322.14 75.623 321.566 71.6225 321.566 66.9687H317.566C317.566 71.94 318.178 76.377 319.446 80.2476L323.247 79.0024ZM321.566 66.9687V55.5781H317.566V66.9687H321.566ZM321.566 55.5781C321.566 50.7902 322.127 46.6877 323.208 43.239L319.392 42.0422C318.16 45.9685 317.566 50.4911 317.566 55.5781H321.566ZM323.21 43.2344C324.297 39.7381 325.844 36.9075 327.813 34.6857L324.819 32.033C322.412 34.7488 320.616 38.1057 319.39 42.0468L323.21 43.2344ZM327.821 34.6764C329.811 32.4015 332.155 30.7101 334.866 29.5805L333.328 25.8882C330.039 27.2586 327.195 29.3173 324.81 32.0424L327.821 34.6764ZM334.882 29.5737C337.606 28.4106 340.662 27.8125 344.081 27.8125V23.8125C340.188 23.8125 336.588 24.4957 333.311 25.8951L334.882 29.5737ZM344.081 27.8125C347.5 27.8125 350.557 28.4106 353.28 29.5737L354.851 25.8951C351.574 24.4957 347.975 23.8125 344.081 23.8125V27.8125ZM353.296 29.5805C356.007 30.7101 358.351 32.4015 360.342 34.6764L363.352 32.0424C360.968 29.3173 358.124 27.2586 354.835 25.8882L353.296 29.5805ZM360.35 34.6857C362.319 36.9075 363.866 39.7381 364.953 43.2344L368.772 42.0468C367.547 38.1057 365.75 34.7488 363.344 32.033L360.35 34.6857ZM364.959 43.2537C366.068 46.6973 366.644 50.7945 366.644 55.5781H370.644C370.644 50.4867 370.032 45.9589 368.766 42.0276L364.959 43.2537ZM357.003 66.9687V55.4844H353.003V66.9687H357.003ZM357.003 55.4844C357.003 52.1479 356.763 49.2391 356.259 46.7849L352.341 47.59C352.774 49.6984 353.003 52.3209 353.003 55.4844H357.003ZM356.26 46.7902C355.759 44.3165 354.984 42.1749 353.876 40.4396L350.505 42.5917C351.272 43.7938 351.904 45.4335 352.34 47.5848L356.26 46.7902ZM353.876 40.4396C352.778 38.7182 351.386 37.3737 349.68 36.5008L347.858 40.0617C348.839 40.5638 349.728 41.3755 350.505 42.5917L353.876 40.4396ZM349.68 36.5008C348.007 35.6451 346.122 35.25 344.081 35.25V39.25C345.603 39.25 346.843 39.5424 347.858 40.0617L349.68 36.5008ZM344.081 35.25C342.039 35.25 340.146 35.6456 338.452 36.4924L340.241 40.0701C341.298 39.5419 342.561 39.25 344.081 39.25V35.25ZM338.436 36.5008C336.73 37.3737 335.338 38.7182 334.239 40.4396L337.611 42.5917C338.387 41.3755 339.276 40.5638 340.258 40.0617L338.436 36.5008ZM334.223 40.4654C333.157 42.1937 332.402 44.3256 331.902 46.7902L335.823 47.5848C336.261 45.4244 336.881 43.7751 337.627 42.5658L334.223 40.4654ZM331.898 46.8108C331.43 49.2543 331.206 52.1538 331.206 55.4844H335.206C335.206 52.3149 335.42 49.6832 335.827 47.5642L331.898 46.8108ZM331.206 55.4844V66.9687H335.206V55.4844H331.206ZM331.206 66.9687C331.206 70.1846 331.447 73.003 331.953 75.3978L335.866 74.571C335.435 72.5282 335.206 70.0029 335.206 66.9687H331.206ZM331.953 75.3978C332.457 77.7851 333.237 79.855 334.355 81.5313L337.683 79.3125C336.925 78.1763 336.299 76.6212 335.866 74.571L331.953 75.3978ZM334.355 81.5313C335.459 83.1872 336.847 84.4819 338.53 85.343L340.352 81.782C339.347 81.2681 338.454 80.469 337.683 79.3125L334.355 81.5313ZM338.579 85.3675C340.265 86.1721 342.146 86.5469 344.175 86.5469V82.5469C342.642 82.5469 341.366 82.2654 340.302 81.7575L338.579 85.3675ZM344.175 86.5469C346.178 86.5469 348.033 86.1703 349.693 85.3596L347.938 81.7654C346.91 82.2672 345.672 82.5469 344.175 82.5469V86.5469ZM349.71 85.3514C351.434 84.4895 352.836 83.1855 353.919 81.5053L350.556 79.3385C349.827 80.4708 348.947 81.2605 347.921 81.7736L349.71 85.3514ZM353.919 81.5053C354.994 79.8358 355.754 77.7755 356.257 75.3978L352.343 74.571C351.908 76.6307 351.293 78.1955 350.556 79.3385L353.919 81.5053ZM356.257 75.3978C356.763 73.003 357.003 70.1846 357.003 66.9687H353.003C353.003 70.0029 352.775 72.5282 352.343 74.571L356.257 75.3978ZM421.92 79.625L420.019 79.0024L420.016 79.0124L421.92 79.625ZM416.951 88.6719L415.453 87.3467L415.452 87.348L416.951 88.6719ZM409.217 94.1094L408.471 92.2537L408.464 92.2564L409.217 94.1094ZM389.201 94.1094L388.448 95.9623L388.455 95.965L389.201 94.1094ZM381.42 88.6719L379.922 89.997L379.931 90.0072L379.94 90.0172L381.42 88.6719ZM376.404 79.625L374.504 80.2476L374.505 80.2525L376.404 79.625ZM376.357 42.6406L378.266 43.239L378.267 43.2344L376.357 42.6406ZM381.373 33.3594L382.87 34.6858L382.878 34.6764L381.373 33.3594ZM389.154 27.7344L389.924 29.5805L389.932 29.5771L389.94 29.5737L389.154 27.7344ZM409.123 27.7344L408.338 29.5737L408.346 29.5771L408.354 29.5805L409.123 27.7344ZM416.904 33.3594L415.399 34.6764L415.407 34.6857L416.904 33.3594ZM421.92 42.6406L420.01 43.2344L420.013 43.2441L420.016 43.2537L421.92 42.6406ZM409.357 47.1875L407.397 47.5848L407.398 47.59L409.357 47.1875ZM394.404 38.2812L393.51 36.4924L393.502 36.4965L393.493 36.5008L394.404 38.2812ZM390.982 41.5156L389.297 40.4396L389.288 40.4524L389.28 40.4654L390.982 41.5156ZM388.92 47.1875L386.96 46.7902L386.958 46.8005L386.956 46.8108L388.92 47.1875ZM394.498 83.5625L393.587 85.343L393.612 85.3556L393.637 85.3675L394.498 83.5625ZM403.873 83.5625L404.751 85.3596L404.759 85.3555L404.768 85.3514L403.873 83.5625ZM421.701 55.5781V66.9687H425.701V55.5781H421.701ZM421.701 66.9687C421.701 71.6225 421.126 75.623 420.019 79.0024L423.821 80.2476C425.089 76.377 425.701 71.94 425.701 66.9687H421.701ZM420.016 79.0124C418.931 82.3849 417.399 85.1467 415.453 87.3467L418.449 89.997C420.815 87.3221 422.596 84.0526 423.824 80.2376L420.016 79.0124ZM415.452 87.348C413.537 89.5165 411.218 91.1491 408.471 92.2537L409.963 95.965C413.278 94.6322 416.115 92.6397 418.45 89.9958L415.452 87.348ZM408.464 92.2564C405.732 93.3663 402.664 93.9375 399.232 93.9375V97.9375C403.114 97.9375 406.702 97.2899 409.97 95.9623L408.464 92.2564ZM399.232 93.9375C395.801 93.9375 392.715 93.3664 389.947 92.2537L388.455 95.965C391.75 97.2898 395.351 97.9375 399.232 97.9375V93.9375ZM389.954 92.2564C387.232 91.1508 384.887 89.5123 382.9 87.3265L379.94 90.0172C382.328 92.644 385.17 94.6304 388.448 95.9623L389.954 92.2564ZM382.918 87.3467C380.968 85.1426 379.42 82.3754 378.303 78.9975L374.505 80.2525C375.764 84.0621 377.559 87.3262 379.922 89.997L382.918 87.3467ZM378.305 79.0024C377.198 75.623 376.623 71.6225 376.623 66.9687H372.623C372.623 71.94 373.236 76.377 374.504 80.2476L378.305 79.0024ZM376.623 66.9687V55.5781H372.623V66.9687H376.623ZM376.623 55.5781C376.623 50.7902 377.184 46.6877 378.266 43.239L374.449 42.0422C373.218 45.9685 372.623 50.4911 372.623 55.5781H376.623ZM378.267 43.2344C379.354 39.7381 380.901 36.9075 382.87 34.6857L379.876 32.033C377.47 34.7488 375.673 38.1057 374.448 42.0468L378.267 43.2344ZM382.878 34.6764C384.869 32.4015 387.213 30.7101 389.924 29.5805L388.385 25.8882C385.096 27.2586 382.252 29.3173 379.868 32.0424L382.878 34.6764ZM389.94 29.5737C392.663 28.4106 395.72 27.8125 399.139 27.8125V23.8125C395.245 23.8125 391.645 24.4957 388.369 25.8951L389.94 29.5737ZM399.139 27.8125C402.558 27.8125 405.614 28.4106 408.338 29.5737L409.909 25.8951C406.632 24.4957 403.032 23.8125 399.139 23.8125V27.8125ZM408.354 29.5805C411.065 30.7101 413.409 32.4015 415.399 34.6764L418.409 32.0424C416.025 29.3173 413.181 27.2586 409.892 25.8882L408.354 29.5805ZM415.407 34.6857C417.376 36.9075 418.923 39.7381 420.01 43.2344L423.83 42.0468C422.604 38.1057 420.808 34.7488 418.401 32.033L415.407 34.6857ZM420.016 43.2537C421.125 46.6973 421.701 50.7945 421.701 55.5781H425.701C425.701 50.4867 425.09 45.9589 423.824 42.0276L420.016 43.2537ZM412.061 66.9687V55.4844H408.061V66.9687H412.061ZM412.061 55.4844C412.061 52.1479 411.821 49.2391 411.317 46.7849L407.398 47.59C407.832 49.6984 408.061 52.3209 408.061 55.4844H412.061ZM411.318 46.7902C410.816 44.3165 410.042 42.1749 408.934 40.4396L405.562 42.5917C406.33 43.7938 406.961 45.4335 407.397 47.5848L411.318 46.7902ZM408.934 40.4396C407.835 38.7182 406.443 37.3737 404.737 36.5008L402.915 40.0617C403.897 40.5638 404.786 41.3755 405.562 42.5917L408.934 40.4396ZM404.737 36.5008C403.065 35.6451 401.18 35.25 399.139 35.25V39.25C400.66 39.25 401.9 39.5424 402.915 40.0617L404.737 36.5008ZM399.139 35.25C397.096 35.25 395.204 35.6456 393.51 36.4924L395.299 40.0701C396.355 39.5419 397.619 39.25 399.139 39.25V35.25ZM393.493 36.5008C391.787 37.3737 390.395 38.7182 389.297 40.4396L392.668 42.5917C393.445 41.3755 394.334 40.5638 395.315 40.0617L393.493 36.5008ZM389.28 40.4654C388.214 42.1937 387.459 44.3256 386.96 46.7902L390.88 47.5848C391.318 45.4244 391.938 43.7751 392.685 42.5658L389.28 40.4654ZM386.956 46.8108C386.487 49.2543 386.264 52.1538 386.264 55.4844H390.264C390.264 52.3149 390.478 49.6832 390.884 47.5642L386.956 46.8108ZM386.264 55.4844V66.9687H390.264V55.4844H386.264ZM386.264 66.9687C386.264 70.1846 386.504 73.003 387.01 75.3978L390.924 74.571C390.492 72.5282 390.264 70.0029 390.264 66.9687H386.264ZM387.01 75.3978C387.514 77.7851 388.295 79.855 389.412 81.5313L392.74 79.3125C391.983 78.1763 391.357 76.6212 390.924 74.571L387.01 75.3978ZM389.412 81.5313C390.516 83.1872 391.904 84.4819 393.587 85.343L395.409 81.782C394.405 81.2681 393.511 80.469 392.74 79.3125L389.412 81.5313ZM393.637 85.3675C395.323 86.1721 397.203 86.5469 399.232 86.5469V82.5469C397.699 82.5469 396.424 82.2654 395.36 81.7575L393.637 85.3675ZM399.232 86.5469C401.235 86.5469 403.091 86.1703 404.751 85.3596L402.995 81.7654C401.968 82.2672 400.73 82.5469 399.232 82.5469V86.5469ZM404.768 85.3514C406.491 84.4895 407.893 83.1855 408.976 81.5053L405.614 79.3385C404.884 80.4708 404.005 81.2605 402.979 81.7736L404.768 85.3514ZM408.976 81.5053C410.052 79.8358 410.812 77.7755 411.314 75.3978L407.401 74.571C406.965 76.6307 406.35 78.1955 405.614 79.3385L408.976 81.5053ZM411.314 75.3978C411.82 73.003 412.061 70.1846 412.061 66.9687H408.061C408.061 70.0029 407.832 72.5282 407.401 74.571L411.314 75.3978ZM436.571 95L434.571 94.9835L434.555 97H436.571V95ZM436.665 83.6562V81.6562H434.681L434.665 83.6397L436.665 83.6562ZM460.243 76.25L458.33 75.6667L458.327 75.6775L458.324 75.6882L460.243 76.25ZM460.806 47.5156L458.838 47.8758L458.839 47.8808L460.806 47.5156ZM458.743 42.1719L457.108 43.3238L457.114 43.3327L457.121 43.3415L458.743 42.1719ZM436.337 38.1406H434.337V40.1406H436.337V38.1406ZM436.337 26.75V24.75H434.337V26.75H436.337ZM467.837 34.2969L466.377 35.6642L466.386 35.6734L467.837 34.2969ZM467.837 87.5L466.377 86.1327L466.377 86.1334L467.837 87.5ZM444.54 26.75H446.54V24.75H444.54V26.75ZM444.54 95V97H446.54V95H444.54ZM430.806 95H428.806V97H430.806V95ZM430.806 26.75V24.75H428.806V26.75H430.806ZM448.618 93H436.571V97H448.618V93ZM438.571 95.0165L438.665 83.6728L434.665 83.6397L434.571 94.9835L438.571 95.0165ZM436.665 85.6562H448.618V81.6562H436.665V85.6562ZM448.618 85.6562C452.132 85.6562 455.143 85.0326 457.435 83.5564L455.27 80.1936C453.874 81.0924 451.729 81.6562 448.618 81.6562V85.6562ZM457.435 83.5564C459.767 82.0549 461.308 79.7312 462.163 76.8118L458.324 75.6882C457.678 77.8938 456.626 79.3201 455.27 80.1936L457.435 83.5564ZM462.156 76.8332C463.018 74.0076 463.415 70.4296 463.415 66.1719H459.415C459.415 70.2267 459.031 73.3674 458.33 75.6667L462.156 76.8332ZM463.415 66.1719V55.5312H459.415V66.1719H463.415ZM463.415 55.5312C463.415 52.2989 463.208 49.4967 462.772 47.1504L458.839 47.8808C459.216 49.9095 459.415 52.4511 459.415 55.5312H463.415ZM462.773 47.1554C462.331 44.7445 461.559 42.6575 460.365 41.0023L457.121 43.3415C457.865 44.3737 458.467 45.8492 458.838 47.8758L462.773 47.1554ZM460.378 41.02C459.178 39.3168 457.567 38.0645 455.601 37.2705L454.104 40.9795C455.388 41.498 456.371 42.2769 457.108 43.3238L460.378 41.02ZM455.601 37.2705C453.668 36.4895 451.379 36.1406 448.806 36.1406V40.1406C451.045 40.1406 452.787 40.448 454.104 40.9795L455.601 37.2705ZM448.806 36.1406H436.337V40.1406H448.806V36.1406ZM438.337 38.1406V26.75H434.337V38.1406H438.337ZM436.337 28.75H448.806V24.75H436.337V28.75ZM448.806 28.75C452.524 28.75 455.847 29.3544 458.8 30.5301L460.28 26.8137C456.796 25.4268 452.962 24.75 448.806 24.75V28.75ZM458.8 30.5301C461.753 31.7053 464.271 33.4152 466.377 35.6641L469.296 32.9296C466.778 30.241 463.765 28.201 460.28 26.8137L458.8 30.5301ZM466.386 35.6734C468.479 37.8792 470.123 40.6397 471.292 44.0008L475.07 42.6867C473.739 38.8603 471.82 35.5895 469.288 32.9204L466.386 35.6734ZM471.292 44.0008C472.455 47.3446 473.056 51.21 473.056 55.625H477.056C477.056 50.8525 476.406 46.5303 475.07 42.6867L471.292 44.0008ZM473.056 55.625V66.1719H477.056V55.625H473.056ZM473.056 66.1719C473.056 70.6203 472.454 74.483 471.293 77.7909L475.068 79.1153C476.407 75.2983 477.056 70.9734 477.056 66.1719H473.056ZM471.293 77.7909C470.125 81.1218 468.479 83.8891 466.377 86.1327L469.296 88.8673C471.82 86.1734 473.737 82.9094 475.068 79.1153L471.293 77.7909ZM466.377 86.1334C464.307 88.3443 461.794 90.0398 458.806 91.2175L460.273 94.9388C463.786 93.5539 466.804 91.5307 469.297 88.8666L466.377 86.1334ZM458.806 91.2175C455.823 92.3936 452.436 93 448.618 93V97C452.862 97 456.757 96.3251 460.273 94.9388L458.806 91.2175ZM442.54 26.75V95H446.54V26.75H442.54ZM444.54 93H430.806V97H444.54V93ZM432.806 95V26.75H428.806V95H432.806ZM430.806 28.75H444.54V24.75H430.806V28.75Z" fill="#007F73" mask="url(#path-1-outside-1_34_15)"/>
<mask id="path-3-outside-2_34_15" maskUnits="userSpaceOnUse" x="3" y="17" width="475" height="75" fill="black">
<rect fill="white" x="3" y="17" width="475" height="75"/>
<path d="M10.8506 20.75H22.8975L36.8194 67.4375L50.6944 20.75H61.335L41.9288 89H31.6631L10.8506 20.75ZM5.97563 20.75H17.46L19.2413 65.75V89H5.97563V20.75ZM56.085 20.75H67.6163V89H54.3975V65.75L56.085 20.75ZM101.486 32.9375L86.8144 89H72.33L93.6581 20.75H102.705L101.486 32.9375ZM113.064 89L98.2988 32.9375L96.9394 20.75H106.127L127.643 89H113.064ZM113.58 63.5469V74.9375H82.7831V63.5469H113.58ZM176.606 53.1406V81.2656C175.637 82.2969 174.216 83.5 172.341 84.875C170.497 86.2187 168.075 87.4062 165.075 88.4375C162.106 89.4375 158.481 89.9375 154.2 89.9375C150.419 89.9375 146.981 89.3437 143.887 88.1562C140.825 86.9687 138.184 85.1719 135.966 82.7656C133.778 80.3281 132.106 77.2969 130.95 73.6719C129.794 70.0156 129.216 65.6875 129.216 60.6875V49.0625C129.216 44.125 129.762 39.8281 130.856 36.1719C131.981 32.4844 133.606 29.4219 135.731 26.9844C137.856 24.5469 140.387 22.7344 143.325 21.5469C146.294 20.3594 149.637 19.7656 153.356 19.7656C158.481 19.7656 162.684 20.625 165.966 22.3437C169.278 24.0625 171.778 26.6094 173.466 29.9844C175.184 33.3594 176.216 37.5 176.559 42.4062H163.294C163.075 39.5312 162.591 37.2812 161.841 35.6562C161.122 34.0312 160.106 32.875 158.794 32.1875C157.481 31.4687 155.778 31.1094 153.684 31.1094C151.872 31.1094 150.294 31.4375 148.95 32.0937C147.606 32.7187 146.481 33.75 145.575 35.1875C144.669 36.625 143.997 38.4687 143.559 40.7187C143.122 42.9687 142.903 45.7187 142.903 48.9687V60.6875C142.903 63.9062 143.153 66.6562 143.653 68.9375C144.153 71.2187 144.887 73.0781 145.856 74.5156C146.856 75.9531 148.106 77 149.606 77.6562C151.137 78.2812 152.934 78.5937 154.997 78.5937C156.653 78.5937 157.981 78.4219 158.981 78.0781C159.981 77.7344 160.778 77.375 161.372 77C161.997 76.5937 162.512 76.2812 162.919 76.0625V63.5H153.122V53.1406H176.606ZM197.867 20.75V89H184.226V20.75H197.867ZM239.237 66.2656H252.877C252.69 71.3906 251.659 75.7187 249.784 79.25C247.909 82.75 245.237 85.4062 241.768 87.2187C238.331 89.0312 234.174 89.9375 229.299 89.9375C225.518 89.9375 222.159 89.3125 219.221 88.0625C216.284 86.7812 213.784 84.9062 211.721 82.4375C209.659 79.9687 208.096 76.9219 207.034 73.2969C206.002 69.6406 205.487 65.4375 205.487 60.6875V49.1094C205.487 44.3594 206.034 40.1562 207.127 36.5C208.252 32.8437 209.846 29.7812 211.909 27.3125C214.002 24.8125 216.518 22.9375 219.456 21.6875C222.424 20.4062 225.768 19.7656 229.487 19.7656C234.456 19.7656 238.612 20.7031 241.956 22.5781C245.299 24.4531 247.877 27.1875 249.69 30.7812C251.534 34.3437 252.643 38.7031 253.018 43.8594H239.331C239.237 40.6094 238.862 38.0625 238.206 36.2187C237.581 34.3437 236.581 33.0312 235.206 32.2812C233.831 31.5 231.924 31.1094 229.487 31.1094C227.674 31.1094 226.112 31.4375 224.799 32.0937C223.487 32.7187 222.409 33.7344 221.565 35.1406C220.721 36.5469 220.096 38.3906 219.69 40.6719C219.315 42.9531 219.127 45.7344 219.127 49.0156V60.6875C219.127 63.9062 219.299 66.6562 219.643 68.9375C219.987 71.1875 220.534 73.0312 221.284 74.4687C222.034 75.9062 223.049 76.9531 224.331 77.6094C225.643 78.2656 227.299 78.5937 229.299 78.5937C231.612 78.5937 233.471 78.25 234.877 77.5625C236.315 76.875 237.377 75.6406 238.065 73.8594C238.752 72.0781 239.143 69.5469 239.237 66.2656ZM291.555 20.75V89H277.821V20.75H291.555ZM312.93 49.7656V61.1094H288.086V49.7656H312.93ZM315.555 20.75V32.1406H288.086V20.75H315.555ZM368.644 49.5781V60.9687C368.644 65.7812 368.05 70 366.862 73.625C365.706 77.2187 364.05 80.2344 361.894 82.6719C359.769 85.0781 357.191 86.8906 354.159 88.1094C351.159 89.3281 347.831 89.9375 344.175 89.9375C340.519 89.9375 337.175 89.3281 334.144 88.1094C331.144 86.8906 328.55 85.0781 326.362 82.6719C324.206 80.2344 322.534 77.2187 321.347 73.625C320.159 70 319.566 65.7812 319.566 60.9687V49.5781C319.566 44.6406 320.144 40.3281 321.3 36.6406C322.456 32.9219 324.128 29.8281 326.316 27.3594C328.503 24.8594 331.097 22.9844 334.097 21.7344C337.097 20.4531 340.425 19.8125 344.081 19.8125C347.737 19.8125 351.066 20.4531 354.066 21.7344C357.066 22.9844 359.659 24.8594 361.847 27.3594C364.034 29.8281 365.706 32.9219 366.862 36.6406C368.05 40.3281 368.644 44.6406 368.644 49.5781ZM355.003 60.9687V49.4844C355.003 46.2344 354.769 43.4687 354.3 41.1875C353.831 38.875 353.128 36.9844 352.191 35.5156C351.253 34.0469 350.112 32.9687 348.769 32.2812C347.425 31.5937 345.862 31.25 344.081 31.25C342.3 31.25 340.722 31.5937 339.347 32.2812C338.003 32.9687 336.862 34.0469 335.925 35.5156C335.019 36.9844 334.331 38.875 333.862 41.1875C333.425 43.4687 333.206 46.2344 333.206 49.4844V60.9687C333.206 64.0937 333.441 66.7656 333.909 68.9844C334.378 71.2031 335.081 73.0156 336.019 74.4219C336.956 75.8281 338.097 76.875 339.441 77.5625C340.816 78.2187 342.394 78.5469 344.175 78.5469C345.925 78.5469 347.472 78.2187 348.816 77.5625C350.191 76.875 351.331 75.8281 352.237 74.4219C353.144 73.0156 353.831 71.2031 354.3 68.9844C354.769 66.7656 355.003 64.0937 355.003 60.9687ZM423.701 49.5781V60.9687C423.701 65.7812 423.107 70 421.92 73.625C420.764 77.2187 419.107 80.2344 416.951 82.6719C414.826 85.0781 412.248 86.8906 409.217 88.1094C406.217 89.3281 402.889 89.9375 399.232 89.9375C395.576 89.9375 392.232 89.3281 389.201 88.1094C386.201 86.8906 383.607 85.0781 381.42 82.6719C379.264 80.2344 377.592 77.2187 376.404 73.625C375.217 70 374.623 65.7812 374.623 60.9687V49.5781C374.623 44.6406 375.201 40.3281 376.357 36.6406C377.514 32.9219 379.186 29.8281 381.373 27.3594C383.561 24.8594 386.154 22.9844 389.154 21.7344C392.154 20.4531 395.482 19.8125 399.139 19.8125C402.795 19.8125 406.123 20.4531 409.123 21.7344C412.123 22.9844 414.717 24.8594 416.904 27.3594C419.092 29.8281 420.764 32.9219 421.92 36.6406C423.107 40.3281 423.701 44.6406 423.701 49.5781ZM410.061 60.9687V49.4844C410.061 46.2344 409.826 43.4687 409.357 41.1875C408.889 38.875 408.186 36.9844 407.248 35.5156C406.311 34.0469 405.17 32.9687 403.826 32.2812C402.482 31.5937 400.92 31.25 399.139 31.25C397.357 31.25 395.779 31.5937 394.404 32.2812C393.061 32.9687 391.92 34.0469 390.982 35.5156C390.076 36.9844 389.389 38.875 388.92 41.1875C388.482 43.4687 388.264 46.2344 388.264 49.4844V60.9687C388.264 64.0937 388.498 66.7656 388.967 68.9844C389.436 71.2031 390.139 73.0156 391.076 74.4219C392.014 75.8281 393.154 76.875 394.498 77.5625C395.873 78.2187 397.451 78.5469 399.232 78.5469C400.982 78.5469 402.529 78.2187 403.873 77.5625C405.248 76.875 406.389 75.8281 407.295 74.4219C408.201 73.0156 408.889 71.2031 409.357 68.9844C409.826 66.7656 410.061 64.0937 410.061 60.9687ZM448.618 89H436.571L436.665 77.6562H448.618C451.931 77.6562 454.509 77.0625 456.352 75.875C458.196 74.6875 459.493 72.8125 460.243 70.25C461.024 67.6875 461.415 64.3281 461.415 60.1719V49.5312C461.415 46.375 461.212 43.7031 460.806 41.5156C460.399 39.2969 459.712 37.5156 458.743 36.1719C457.774 34.7969 456.477 33.7812 454.852 33.125C453.227 32.4687 451.212 32.1406 448.806 32.1406H436.337V20.75H448.806C452.743 20.75 456.321 21.3906 459.54 22.6719C462.759 23.9531 465.524 25.8281 467.837 28.2969C470.149 30.7344 471.931 33.75 473.181 37.3437C474.431 40.9375 475.056 45.0312 475.056 49.625V60.1719C475.056 64.7969 474.431 68.8906 473.181 72.4531C471.931 76.0156 470.149 79.0312 467.837 81.5C465.556 83.9375 462.79 85.7969 459.54 87.0781C456.29 88.3594 452.649 89 448.618 89ZM444.54 20.75V89H430.806V20.75H444.54Z"/>
</mask>
<path d="M10.8506 20.75H22.8975L36.8194 67.4375L50.6944 20.75H61.335L41.9288 89H31.6631L10.8506 20.75ZM5.97563 20.75H17.46L19.2413 65.75V89H5.97563V20.75ZM56.085 20.75H67.6163V89H54.3975V65.75L56.085 20.75ZM101.486 32.9375L86.8144 89H72.33L93.6581 20.75H102.705L101.486 32.9375ZM113.064 89L98.2988 32.9375L96.9394 20.75H106.127L127.643 89H113.064ZM113.58 63.5469V74.9375H82.7831V63.5469H113.58ZM176.606 53.1406V81.2656C175.637 82.2969 174.216 83.5 172.341 84.875C170.497 86.2187 168.075 87.4062 165.075 88.4375C162.106 89.4375 158.481 89.9375 154.2 89.9375C150.419 89.9375 146.981 89.3437 143.887 88.1562C140.825 86.9687 138.184 85.1719 135.966 82.7656C133.778 80.3281 132.106 77.2969 130.95 73.6719C129.794 70.0156 129.216 65.6875 129.216 60.6875V49.0625C129.216 44.125 129.762 39.8281 130.856 36.1719C131.981 32.4844 133.606 29.4219 135.731 26.9844C137.856 24.5469 140.387 22.7344 143.325 21.5469C146.294 20.3594 149.637 19.7656 153.356 19.7656C158.481 19.7656 162.684 20.625 165.966 22.3437C169.278 24.0625 171.778 26.6094 173.466 29.9844C175.184 33.3594 176.216 37.5 176.559 42.4062H163.294C163.075 39.5312 162.591 37.2812 161.841 35.6562C161.122 34.0312 160.106 32.875 158.794 32.1875C157.481 31.4687 155.778 31.1094 153.684 31.1094C151.872 31.1094 150.294 31.4375 148.95 32.0937C147.606 32.7187 146.481 33.75 145.575 35.1875C144.669 36.625 143.997 38.4687 143.559 40.7187C143.122 42.9687 142.903 45.7187 142.903 48.9687V60.6875C142.903 63.9062 143.153 66.6562 143.653 68.9375C144.153 71.2187 144.887 73.0781 145.856 74.5156C146.856 75.9531 148.106 77 149.606 77.6562C151.137 78.2812 152.934 78.5937 154.997 78.5937C156.653 78.5937 157.981 78.4219 158.981 78.0781C159.981 77.7344 160.778 77.375 161.372 77C161.997 76.5937 162.512 76.2812 162.919 76.0625V63.5H153.122V53.1406H176.606ZM197.867 20.75V89H184.226V20.75H197.867ZM239.237 66.2656H252.877C252.69 71.3906 251.659 75.7187 249.784 79.25C247.909 82.75 245.237 85.4062 241.768 87.2187C238.331 89.0312 234.174 89.9375 229.299 89.9375C225.518 89.9375 222.159 89.3125 219.221 88.0625C216.284 86.7812 213.784 84.9062 211.721 82.4375C209.659 79.9687 208.096 76.9219 207.034 73.2969C206.002 69.6406 205.487 65.4375 205.487 60.6875V49.1094C205.487 44.3594 206.034 40.1562 207.127 36.5C208.252 32.8437 209.846 29.7812 211.909 27.3125C214.002 24.8125 216.518 22.9375 219.456 21.6875C222.424 20.4062 225.768 19.7656 229.487 19.7656C234.456 19.7656 238.612 20.7031 241.956 22.5781C245.299 24.4531 247.877 27.1875 249.69 30.7812C251.534 34.3437 252.643 38.7031 253.018 43.8594H239.331C239.237 40.6094 238.862 38.0625 238.206 36.2187C237.581 34.3437 236.581 33.0312 235.206 32.2812C233.831 31.5 231.924 31.1094 229.487 31.1094C227.674 31.1094 226.112 31.4375 224.799 32.0937C223.487 32.7187 222.409 33.7344 221.565 35.1406C220.721 36.5469 220.096 38.3906 219.69 40.6719C219.315 42.9531 219.127 45.7344 219.127 49.0156V60.6875C219.127 63.9062 219.299 66.6562 219.643 68.9375C219.987 71.1875 220.534 73.0312 221.284 74.4687C222.034 75.9062 223.049 76.9531 224.331 77.6094C225.643 78.2656 227.299 78.5937 229.299 78.5937C231.612 78.5937 233.471 78.25 234.877 77.5625C236.315 76.875 237.377 75.6406 238.065 73.8594C238.752 72.0781 239.143 69.5469 239.237 66.2656ZM291.555 20.75V89H277.821V20.75H291.555ZM312.93 49.7656V61.1094H288.086V49.7656H312.93ZM315.555 20.75V32.1406H288.086V20.75H315.555ZM368.644 49.5781V60.9687C368.644 65.7812 368.05 70 366.862 73.625C365.706 77.2187 364.05 80.2344 361.894 82.6719C359.769 85.0781 357.191 86.8906 354.159 88.1094C351.159 89.3281 347.831 89.9375 344.175 89.9375C340.519 89.9375 337.175 89.3281 334.144 88.1094C331.144 86.8906 328.55 85.0781 326.362 82.6719C324.206 80.2344 322.534 77.2187 321.347 73.625C320.159 70 319.566 65.7812 319.566 60.9687V49.5781C319.566 44.6406 320.144 40.3281 321.3 36.6406C322.456 32.9219 324.128 29.8281 326.316 27.3594C328.503 24.8594 331.097 22.9844 334.097 21.7344C337.097 20.4531 340.425 19.8125 344.081 19.8125C347.737 19.8125 351.066 20.4531 354.066 21.7344C357.066 22.9844 359.659 24.8594 361.847 27.3594C364.034 29.8281 365.706 32.9219 366.862 36.6406C368.05 40.3281 368.644 44.6406 368.644 49.5781ZM355.003 60.9687V49.4844C355.003 46.2344 354.769 43.4687 354.3 41.1875C353.831 38.875 353.128 36.9844 352.191 35.5156C351.253 34.0469 350.112 32.9687 348.769 32.2812C347.425 31.5937 345.862 31.25 344.081 31.25C342.3 31.25 340.722 31.5937 339.347 32.2812C338.003 32.9687 336.862 34.0469 335.925 35.5156C335.019 36.9844 334.331 38.875 333.862 41.1875C333.425 43.4687 333.206 46.2344 333.206 49.4844V60.9687C333.206 64.0937 333.441 66.7656 333.909 68.9844C334.378 71.2031 335.081 73.0156 336.019 74.4219C336.956 75.8281 338.097 76.875 339.441 77.5625C340.816 78.2187 342.394 78.5469 344.175 78.5469C345.925 78.5469 347.472 78.2187 348.816 77.5625C350.191 76.875 351.331 75.8281 352.237 74.4219C353.144 73.0156 353.831 71.2031 354.3 68.9844C354.769 66.7656 355.003 64.0937 355.003 60.9687ZM423.701 49.5781V60.9687C423.701 65.7812 423.107 70 421.92 73.625C420.764 77.2187 419.107 80.2344 416.951 82.6719C414.826 85.0781 412.248 86.8906 409.217 88.1094C406.217 89.3281 402.889 89.9375 399.232 89.9375C395.576 89.9375 392.232 89.3281 389.201 88.1094C386.201 86.8906 383.607 85.0781 381.42 82.6719C379.264 80.2344 377.592 77.2187 376.404 73.625C375.217 70 374.623 65.7812 374.623 60.9687V49.5781C374.623 44.6406 375.201 40.3281 376.357 36.6406C377.514 32.9219 379.186 29.8281 381.373 27.3594C383.561 24.8594 386.154 22.9844 389.154 21.7344C392.154 20.4531 395.482 19.8125 399.139 19.8125C402.795 19.8125 406.123 20.4531 409.123 21.7344C412.123 22.9844 414.717 24.8594 416.904 27.3594C419.092 29.8281 420.764 32.9219 421.92 36.6406C423.107 40.3281 423.701 44.6406 423.701 49.5781ZM410.061 60.9687V49.4844C410.061 46.2344 409.826 43.4687 409.357 41.1875C408.889 38.875 408.186 36.9844 407.248 35.5156C406.311 34.0469 405.17 32.9687 403.826 32.2812C402.482 31.5937 400.92 31.25 399.139 31.25C397.357 31.25 395.779 31.5937 394.404 32.2812C393.061 32.9687 391.92 34.0469 390.982 35.5156C390.076 36.9844 389.389 38.875 388.92 41.1875C388.482 43.4687 388.264 46.2344 388.264 49.4844V60.9687C388.264 64.0937 388.498 66.7656 388.967 68.9844C389.436 71.2031 390.139 73.0156 391.076 74.4219C392.014 75.8281 393.154 76.875 394.498 77.5625C395.873 78.2187 397.451 78.5469 399.232 78.5469C400.982 78.5469 402.529 78.2187 403.873 77.5625C405.248 76.875 406.389 75.8281 407.295 74.4219C408.201 73.0156 408.889 71.2031 409.357 68.9844C409.826 66.7656 410.061 64.0937 410.061 60.9687ZM448.618 89H436.571L436.665 77.6562H448.618C451.931 77.6562 454.509 77.0625 456.352 75.875C458.196 74.6875 459.493 72.8125 460.243 70.25C461.024 67.6875 461.415 64.3281 461.415 60.1719V49.5312C461.415 46.375 461.212 43.7031 460.806 41.5156C460.399 39.2969 459.712 37.5156 458.743 36.1719C457.774 34.7969 456.477 33.7812 454.852 33.125C453.227 32.4687 451.212 32.1406 448.806 32.1406H436.337V20.75H448.806C452.743 20.75 456.321 21.3906 459.54 22.6719C462.759 23.9531 465.524 25.8281 467.837 28.2969C470.149 30.7344 471.931 33.75 473.181 37.3437C474.431 40.9375 475.056 45.0312 475.056 49.625V60.1719C475.056 64.7969 474.431 68.8906 473.181 72.4531C471.931 76.0156 470.149 79.0312 467.837 81.5C465.556 83.9375 462.79 85.7969 459.54 87.0781C456.29 88.3594 452.649 89 448.618 89ZM444.54 20.75V89H430.806V20.75H444.54Z" fill="white"/>
<path d="M10.8506 20.75V18.75H8.14982L8.9376 21.3334L10.8506 20.75ZM22.8975 20.75L24.8141 20.1785L24.3881 18.75H22.8975V20.75ZM36.8194 67.4375L34.9028 68.009L36.8226 74.4473L38.7365 68.0072L36.8194 67.4375ZM50.6944 20.75V18.75H49.2023L48.7772 20.1802L50.6944 20.75ZM61.335 20.75L63.2587 21.297L63.983 18.75H61.335V20.75ZM41.9288 89V91H43.4394L43.8525 89.547L41.9288 89ZM31.6631 89L29.7501 89.5834L30.1821 91H31.6631V89ZM5.97563 20.75V18.75H3.97563V20.75H5.97563ZM17.46 20.75L19.4584 20.6709L19.3824 18.75H17.46V20.75ZM19.2413 65.75H21.2413V65.7104L21.2397 65.6709L19.2413 65.75ZM19.2413 89V91H21.2413V89H19.2413ZM5.97563 89H3.97563V91H5.97563V89ZM56.085 20.75V18.75H54.1586L54.0864 20.6751L56.085 20.75ZM67.6163 20.75H69.6163V18.75H67.6163V20.75ZM67.6163 89V91H69.6163V89H67.6163ZM54.3975 89H52.3975V91H54.3975V89ZM54.3975 65.75L52.3989 65.6751L52.3975 65.7125V65.75H54.3975ZM10.8506 22.75H22.8975V18.75H10.8506V22.75ZM20.9809 21.3215L34.9028 68.009L38.736 66.866L24.8141 20.1785L20.9809 21.3215ZM38.7365 68.0072L52.6115 21.3197L48.7772 20.1802L34.9023 66.8677L38.7365 68.0072ZM50.6944 22.75H61.335V18.75H50.6944V22.75ZM59.4113 20.203L40.005 88.453L43.8525 89.547L63.2587 21.297L59.4113 20.203ZM41.9288 87H31.6631V91H41.9288V87ZM33.5762 88.4166L12.7637 20.1666L8.9376 21.3334L29.7501 89.5834L33.5762 88.4166ZM5.97563 22.75H17.46V18.75H5.97563V22.75ZM15.4616 20.8291L17.2428 65.8291L21.2397 65.6709L19.4584 20.6709L15.4616 20.8291ZM17.2413 65.75V89H21.2413V65.75H17.2413ZM19.2413 87H5.97563V91H19.2413V87ZM7.97563 89V20.75H3.97563V89H7.97563ZM56.085 22.75H67.6163V18.75H56.085V22.75ZM65.6163 20.75V89H69.6163V20.75H65.6163ZM67.6163 87H54.3975V91H67.6163V87ZM56.3975 89V65.75H52.3975V89H56.3975ZM56.3961 65.8249L58.0836 20.8249L54.0864 20.6751L52.3989 65.6751L56.3961 65.8249ZM101.486 32.9375L103.421 33.4439L103.461 33.2923L103.476 33.1365L101.486 32.9375ZM86.8144 89V91H88.3583L88.7492 89.5063L86.8144 89ZM72.33 89L70.421 88.4034L69.6096 91H72.33V89ZM93.6581 20.75V18.75H92.1877L91.7492 20.1534L93.6581 20.75ZM102.705 20.75L104.695 20.949L104.915 18.75H102.705V20.75ZM113.064 89L111.13 89.5094L111.523 91H113.064V89ZM98.2988 32.9375L96.3111 33.1592L96.3273 33.305L96.3647 33.4469L98.2988 32.9375ZM96.9394 20.75V18.75H94.7039L94.9517 20.9717L96.9394 20.75ZM106.127 20.75L108.034 20.1487L107.593 18.75H106.127V20.75ZM127.643 89V91H130.37L129.55 88.3987L127.643 89ZM113.58 63.5469H115.58V61.5469H113.58V63.5469ZM113.58 74.9375V76.9375H115.58V74.9375H113.58ZM82.7831 74.9375H80.7831V76.9375H82.7831V74.9375ZM82.7831 63.5469V61.5469H80.7831V63.5469H82.7831ZM99.5514 32.4311L84.8795 88.4936L88.7492 89.5063L103.421 33.4439L99.5514 32.4311ZM86.8144 87H72.33V91H86.8144V87ZM74.239 89.5965L95.5671 21.3465L91.7492 20.1534L70.421 88.4034L74.239 89.5965ZM93.6581 22.75H102.705V18.75H93.6581V22.75ZM100.715 20.551L99.4962 32.7385L103.476 33.1365L104.695 20.949L100.715 20.551ZM114.998 88.4906L100.233 32.4281L96.3647 33.4469L111.13 89.5094L114.998 88.4906ZM100.286 32.7158L98.927 20.5283L94.9517 20.9717L96.3111 33.1592L100.286 32.7158ZM96.9394 22.75H106.127V18.75H96.9394V22.75ZM104.219 21.3513L125.735 89.6013L129.55 88.3987L108.034 20.1487L104.219 21.3513ZM127.643 87H113.064V91H127.643V87ZM111.58 63.5469V74.9375H115.58V63.5469H111.58ZM113.58 72.9375H82.7831V76.9375H113.58V72.9375ZM84.7831 74.9375V63.5469H80.7831V74.9375H84.7831ZM82.7831 65.5469H113.58V61.5469H82.7831V65.5469ZM176.606 53.1406H178.606V51.1406H176.606V53.1406ZM176.606 81.2656L178.064 82.635L178.606 82.0577V81.2656H176.606ZM172.341 84.875L173.519 86.4913L173.523 86.4878L172.341 84.875ZM165.075 88.4375L165.713 90.3329L165.725 90.3289L165.075 88.4375ZM143.888 88.1562L143.164 90.021L143.171 90.0234L143.888 88.1562ZM135.966 82.7656L134.477 84.1014L134.486 84.1115L134.495 84.1214L135.966 82.7656ZM130.95 73.6719L129.043 74.2749L129.045 74.2796L130.95 73.6719ZM130.856 36.1719L128.943 35.5883L128.94 35.5987L130.856 36.1719ZM143.325 21.5469L142.582 19.6899L142.575 19.6927L143.325 21.5469ZM165.966 22.3437L165.038 24.1154L165.045 24.119L165.966 22.3437ZM173.466 29.9844L171.677 30.8788L171.68 30.8854L171.683 30.892L173.466 29.9844ZM176.559 42.4062V44.4062H178.704L178.554 42.2665L176.559 42.4062ZM163.294 42.4062L161.3 42.558L161.44 44.4062H163.294V42.4062ZM161.841 35.6562L160.012 36.4653L160.018 36.4799L160.025 36.4944L161.841 35.6562ZM158.794 32.1875L157.833 33.9417L157.849 33.9506L157.866 33.9592L158.794 32.1875ZM148.95 32.0937L149.793 33.9072L149.811 33.8992L149.828 33.8909L148.95 32.0937ZM145.856 74.5156L144.198 75.6333L144.206 75.6456L144.214 75.6577L145.856 74.5156ZM149.606 77.6562L148.805 79.4886L148.827 79.4985L148.85 79.5079L149.606 77.6562ZM161.372 77L162.44 78.691L162.451 78.684L162.462 78.6769L161.372 77ZM162.919 76.0625L163.867 77.8234L164.919 77.2571V76.0625H162.919ZM162.919 63.5H164.919V61.5H162.919V63.5ZM153.122 63.5H151.122V65.5H153.122V63.5ZM153.122 53.1406V51.1406H151.122V53.1406H153.122ZM174.606 53.1406V81.2656H178.606V53.1406H174.606ZM175.149 79.8963C174.3 80.7996 172.988 81.9199 171.158 83.2622L173.523 86.4878C175.443 85.0801 176.975 83.7941 178.064 82.635L175.149 79.8963ZM171.163 83.2587C169.529 84.4491 167.304 85.5564 164.425 86.5461L165.725 90.3289C168.846 89.2561 171.464 87.9884 173.519 86.4913L171.163 83.2587ZM164.437 86.5421C161.733 87.4526 158.338 87.9375 154.2 87.9375V91.9375C158.624 91.9375 162.479 91.4224 165.713 90.3329L164.437 86.5421ZM154.2 87.9375C150.63 87.9375 147.439 87.3773 144.604 86.2891L143.171 90.0234C146.523 91.3102 150.208 91.9375 154.2 91.9375V87.9375ZM144.611 86.2915C141.832 85.214 139.447 83.5908 137.436 81.4099L134.495 84.1214C136.922 86.7529 139.818 88.7235 143.164 90.021L144.611 86.2915ZM137.454 81.4298C135.484 79.2341 133.94 76.4629 132.855 73.0641L129.045 74.2796C130.273 78.1308 132.073 81.4221 134.477 84.1014L137.454 81.4298ZM132.857 73.0688C131.778 69.6566 131.216 65.5414 131.216 60.6875H127.216C127.216 65.8335 127.81 70.3747 129.043 74.2749L132.857 73.0688ZM131.216 60.6875V49.0625H127.216V60.6875H131.216ZM131.216 49.0625C131.216 44.2654 131.748 40.17 132.772 36.7451L128.94 35.5987C127.777 39.4862 127.216 43.9846 127.216 49.0625H131.216ZM132.769 36.7555C133.828 33.2864 135.331 30.4871 137.239 28.2986L134.224 25.6701C131.882 28.3567 130.135 31.6824 128.943 35.5883L132.769 36.7555ZM137.239 28.2986C139.162 26.0932 141.435 24.4682 144.075 23.4011L142.575 19.6927C139.34 21.0005 136.551 23.0006 134.224 25.6701L137.239 28.2986ZM144.068 23.4038C146.765 22.3249 149.851 21.7656 153.356 21.7656V17.7656C149.424 17.7656 145.822 18.3938 142.582 19.6899L144.068 23.4038ZM153.356 21.7656C158.275 21.7656 162.131 22.593 165.038 24.1154L166.894 20.5721C163.238 18.657 158.687 17.7656 153.356 17.7656V21.7656ZM165.045 24.119C167.978 25.6409 170.176 27.8772 171.677 30.8788L175.254 29.0899C173.38 25.3416 170.579 22.4841 166.887 20.5685L165.045 24.119ZM171.683 30.892C173.25 33.9681 174.234 37.8311 174.564 42.546L178.554 42.2665C178.197 37.1689 177.119 32.7507 175.248 29.0768L171.683 30.892ZM176.559 40.4062H163.294V44.4062H176.559V40.4062ZM165.288 42.2545C165.061 39.269 164.549 36.751 163.657 34.8181L160.025 36.4944C160.633 37.8115 161.089 39.7935 161.3 42.558L165.288 42.2545ZM163.67 34.8472C162.806 32.8941 161.51 31.3527 159.722 30.4158L157.866 33.9592C158.702 34.3973 159.438 35.1684 160.012 36.4653L163.67 34.8472ZM159.754 30.4333C158.053 29.5017 155.987 29.1094 153.684 29.1094V33.1094C155.569 33.1094 156.909 33.4358 157.833 33.9417L159.754 30.4333ZM153.684 29.1094C151.631 29.1094 149.741 29.4816 148.072 30.2966L149.828 33.8909C150.846 33.3934 152.113 33.1094 153.684 33.1094V29.1094ZM148.107 30.2803C146.365 31.0903 144.964 32.407 143.883 34.1209L147.267 36.2541C147.999 35.093 148.847 34.3472 149.793 33.9072L148.107 30.2803ZM143.883 34.1209C142.808 35.827 142.065 37.9235 141.596 40.337L145.523 41.1005C145.928 39.014 146.53 37.423 147.267 36.2541L143.883 34.1209ZM141.596 40.337C141.126 42.7528 140.903 45.6391 140.903 48.9687H144.903C144.903 45.7984 145.117 43.1847 145.523 41.1005L141.596 40.337ZM140.903 48.9687V60.6875H144.903V48.9687H140.903ZM140.903 60.6875C140.903 64.0004 141.16 66.9023 141.7 69.3657L145.607 68.5093C145.147 66.4102 144.903 63.8121 144.903 60.6875H140.903ZM141.7 69.3657C142.236 71.8129 143.048 73.9278 144.198 75.6333L147.515 73.3979C146.727 72.2284 146.07 70.6246 145.607 68.5093L141.7 69.3657ZM144.214 75.6577C145.41 77.3765 146.942 78.6739 148.805 79.4886L150.408 75.8239C149.27 75.3261 148.302 74.5297 147.498 73.3735L144.214 75.6577ZM148.85 79.5079C150.673 80.2518 152.737 80.5937 154.997 80.5937V76.5937C153.132 76.5937 151.602 76.3107 150.362 75.8046L148.85 79.5079ZM154.997 80.5937C156.764 80.5937 158.338 80.414 159.631 79.9695L158.331 76.1867C157.624 76.4298 156.542 76.5937 154.997 76.5937V80.5937ZM159.631 79.9695C160.712 79.598 161.667 79.1791 162.44 78.691L160.304 75.309C159.889 75.5709 159.25 75.8708 158.331 76.1867L159.631 79.9695ZM162.462 78.6769C163.065 78.2848 163.529 78.0053 163.867 77.8234L161.971 74.3016C161.496 74.5572 160.929 74.9027 160.282 75.3231L162.462 78.6769ZM164.919 76.0625V63.5H160.919V76.0625H164.919ZM162.919 61.5H153.122V65.5H162.919V61.5ZM155.122 63.5V53.1406H151.122V63.5H155.122ZM153.122 55.1406H176.606V51.1406H153.122V55.1406ZM197.867 20.75H199.867V18.75H197.867V20.75ZM197.867 89V91H199.867V89H197.867ZM184.226 89H182.226V91H184.226V89ZM184.226 20.75V18.75H182.226V20.75H184.226ZM195.867 20.75V89H199.867V20.75H195.867ZM197.867 87H184.226V91H197.867V87ZM186.226 89V20.75H182.226V89H186.226ZM184.226 22.75H197.867V18.75H184.226V22.75ZM239.237 66.2656V64.2656H237.293L237.238 66.2085L239.237 66.2656ZM252.877 66.2656L254.876 66.3387L254.952 64.2656H252.877V66.2656ZM249.784 79.25L251.547 80.1944L251.55 80.1879L249.784 79.25ZM241.768 87.2187L240.842 85.4461L240.835 85.4496L241.768 87.2187ZM219.221 88.0625L218.422 89.8957L218.43 89.8993L218.438 89.9028L219.221 88.0625ZM207.034 73.2969L205.109 73.8398L205.112 73.8496L205.114 73.8594L207.034 73.2969ZM207.127 36.5L205.216 35.9118L205.214 35.9193L205.211 35.9268L207.127 36.5ZM211.909 27.3125L210.375 26.0284L210.374 26.0302L211.909 27.3125ZM219.456 21.6875L220.239 23.5278L220.248 23.5238L219.456 21.6875ZM249.69 30.7812L247.904 31.6819L247.909 31.6912L247.914 31.7005L249.69 30.7812ZM253.018 43.8594V45.8594H255.169L255.013 43.7143L253.018 43.8594ZM239.331 43.8594L237.331 43.917L237.387 45.8594H239.331V43.8594ZM238.206 36.2187L236.308 36.8512L236.315 36.8704L236.321 36.8894L238.206 36.2187ZM235.206 32.2812L234.218 34.0202L234.233 34.0287L234.248 34.037L235.206 32.2812ZM224.799 32.0937L225.659 33.8995L225.677 33.8912L225.694 33.8826L224.799 32.0937ZM219.69 40.6719L217.721 40.3212L217.719 40.3343L217.716 40.3475L219.69 40.6719ZM219.643 68.9375L217.665 69.2355L217.666 69.2395L219.643 68.9375ZM224.331 77.6094L223.419 79.3895L223.428 79.3939L223.436 79.3982L224.331 77.6094ZM234.877 77.5625L234.015 75.7582L234.007 75.7619L233.999 75.7657L234.877 77.5625ZM239.237 68.2656H252.877V64.2656H239.237V68.2656ZM250.879 66.1925C250.699 71.0979 249.716 75.1123 248.017 78.3121L251.55 80.1879C253.601 76.3252 254.681 71.6833 254.876 66.3387L250.879 66.1925ZM248.021 78.3056C246.332 81.4573 243.949 83.8224 240.842 85.4461L242.694 88.9913C246.524 86.9901 249.485 84.0427 251.547 80.1944L248.021 78.3056ZM240.835 85.4496C237.749 87.0767 233.93 87.9375 229.299 87.9375V91.9375C234.418 91.9375 238.912 90.9858 242.701 88.9879L240.835 85.4496ZM229.299 87.9375C225.738 87.9375 222.653 87.3492 220.004 86.2222L218.438 89.9028C221.665 91.2758 225.298 91.9375 229.299 91.9375V87.9375ZM220.021 86.2293C217.369 85.0726 215.12 83.3867 213.256 81.1552L210.186 83.7198C212.447 86.4258 215.199 88.4899 218.422 89.8957L220.021 86.2293ZM213.256 81.1552C211.398 78.9309 209.951 76.1409 208.953 72.7343L205.114 73.8594C206.241 77.7028 207.92 81.0066 210.186 83.7198L213.256 81.1552ZM208.959 72.7539C207.988 69.312 207.487 65.2977 207.487 60.6875H203.487C203.487 65.5773 204.017 69.9692 205.109 73.8398L208.959 72.7539ZM207.487 60.6875V49.1094H203.487V60.6875H207.487ZM207.487 49.1094C207.487 44.5082 208.017 40.5045 209.044 37.0732L205.211 35.9268C204.05 39.808 203.487 44.2106 203.487 49.1094H207.487ZM209.039 37.0882C210.1 33.6388 211.581 30.8247 213.444 28.5948L210.374 26.0302C208.112 28.7378 206.405 32.0487 205.216 35.9118L209.039 37.0882ZM213.442 28.5966C215.338 26.3332 217.598 24.6515 220.239 23.5278L218.673 19.8472C215.438 21.2235 212.667 23.2918 210.375 26.0284L213.442 28.5966ZM220.248 23.5238C222.932 22.3656 226 21.7656 229.487 21.7656V17.7656C225.536 17.7656 221.917 18.4469 218.663 19.8512L220.248 23.5238ZM229.487 21.7656C234.212 21.7656 238.008 22.6576 240.977 24.3226L242.934 20.8337C239.216 18.7487 234.699 17.7656 229.487 17.7656V21.7656ZM240.977 24.3226C243.956 25.9929 246.262 28.4248 247.904 31.6819L251.476 29.8806C249.493 25.9502 246.643 22.9133 242.934 20.8337L240.977 24.3226ZM247.914 31.7005C249.603 34.9638 250.663 39.0436 251.023 44.0044L255.013 43.7143C254.624 38.3626 253.465 33.7237 251.466 29.862L247.914 31.7005ZM253.018 41.8594H239.331V45.8594H253.018V41.8594ZM241.33 43.8017C241.233 40.4615 240.847 37.6762 240.09 35.5481L236.321 36.8894C236.876 38.4488 237.24 40.7572 237.331 43.917L241.33 43.8017ZM240.103 35.5863C239.362 33.3624 238.09 31.5765 236.163 30.5255L234.248 34.037C235.071 34.486 235.8 35.3251 236.308 36.8512L240.103 35.5863ZM236.194 30.5423C234.397 29.5215 232.099 29.1094 229.487 29.1094V33.1094C231.749 33.1094 233.264 33.4785 234.218 34.0202L236.194 30.5423ZM229.487 29.1094C227.435 29.1094 225.553 29.481 223.905 30.3049L225.694 33.8826C226.671 33.394 227.913 33.1094 229.487 33.1094V29.1094ZM223.94 30.288C222.227 31.1033 220.869 32.4127 219.85 34.1116L223.28 36.1696C223.948 35.0561 224.746 34.3342 225.659 33.8995L223.94 30.288ZM219.85 34.1116C218.841 35.7936 218.154 37.8916 217.721 40.3212L221.659 41.0225C222.039 38.8897 222.602 37.3001 223.28 36.1696L219.85 34.1116ZM217.716 40.3475C217.318 42.7701 217.127 45.6668 217.127 49.0156H221.127C221.127 45.8019 221.312 43.1362 221.663 40.9963L217.716 40.3475ZM217.127 49.0156V60.6875H221.127V49.0156H217.127ZM217.127 60.6875C217.127 63.9702 217.302 66.8256 217.665 69.2355L221.621 68.6395C221.296 66.4869 221.127 63.8423 221.127 60.6875H217.127ZM217.666 69.2395C218.031 71.6262 218.627 73.7001 219.511 75.3939L223.057 73.5436C222.441 72.3624 221.943 70.7488 221.62 68.6354L217.666 69.2395ZM219.511 75.3939C220.427 77.1504 221.723 78.5209 223.419 79.3895L225.242 75.8293C224.376 75.3853 223.64 74.6621 223.057 73.5436L219.511 75.3939ZM223.436 79.3982C225.108 80.2343 227.096 80.5937 229.299 80.5937V76.5937C227.503 76.5937 226.178 76.2969 225.225 75.8205L223.436 79.3982ZM229.299 80.5937C231.783 80.5937 233.977 80.2289 235.756 79.3593L233.999 75.7657C232.965 76.2711 231.441 76.5937 229.299 76.5937V80.5937ZM235.74 79.3668C237.727 78.4168 239.098 76.7367 239.931 74.5795L236.199 73.1392C235.657 74.5445 234.903 75.3332 234.015 75.7582L235.74 79.3668ZM239.931 74.5795C240.738 72.4871 241.14 69.6922 241.236 66.3227L237.238 66.2085C237.146 69.4016 236.767 71.6691 236.199 73.1392L239.931 74.5795ZM291.555 20.75H293.555V18.75H291.555V20.75ZM291.555 89V91H293.555V89H291.555ZM277.821 89H275.821V91H277.821V89ZM277.821 20.75V18.75H275.821V20.75H277.821ZM312.93 49.7656H314.93V47.7656H312.93V49.7656ZM312.93 61.1094V63.1094H314.93V61.1094H312.93ZM288.086 61.1094H286.086V63.1094H288.086V61.1094ZM288.086 49.7656V47.7656H286.086V49.7656H288.086ZM315.555 20.75H317.555V18.75H315.555V20.75ZM315.555 32.1406V34.1406H317.555V32.1406H315.555ZM288.086 32.1406H286.086V34.1406H288.086V32.1406ZM288.086 20.75V18.75H286.086V20.75H288.086ZM289.555 20.75V89H293.555V20.75H289.555ZM291.555 87H277.821V91H291.555V87ZM279.821 89V20.75H275.821V89H279.821ZM277.821 22.75H291.555V18.75H277.821V22.75ZM310.93 49.7656V61.1094H314.93V49.7656H310.93ZM312.93 59.1094H288.086V63.1094H312.93V59.1094ZM290.086 61.1094V49.7656H286.086V61.1094H290.086ZM288.086 51.7656H312.93V47.7656H288.086V51.7656ZM313.555 20.75V32.1406H317.555V20.75H313.555ZM315.555 30.1406H288.086V34.1406H315.555V30.1406ZM290.086 32.1406V20.75H286.086V32.1406H290.086ZM288.086 22.75H315.555V18.75H288.086V22.75ZM366.862 73.625L364.962 73.0024L364.959 73.0124L366.862 73.625ZM361.894 82.6719L360.396 81.3467L360.395 81.348L361.894 82.6719ZM354.159 88.1094L353.413 86.2537L353.407 86.2564L354.159 88.1094ZM334.144 88.1094L333.391 89.9623L333.398 89.965L334.144 88.1094ZM326.362 82.6719L324.864 83.997L324.873 84.0072L324.883 84.0172L326.362 82.6719ZM321.347 73.625L319.446 74.2476L319.448 74.2525L321.347 73.625ZM321.3 36.6406L323.208 37.239L323.21 37.2344L321.3 36.6406ZM326.316 27.3594L327.813 28.6858L327.821 28.6764L326.316 27.3594ZM334.097 21.7344L334.866 23.5805L334.874 23.5771L334.882 23.5737L334.097 21.7344ZM354.066 21.7344L353.28 23.5737L353.288 23.5771L353.296 23.5805L354.066 21.7344ZM361.847 27.3594L360.342 28.6764L360.35 28.6857L361.847 27.3594ZM366.862 36.6406L364.953 37.2344L364.956 37.2441L364.959 37.2537L366.862 36.6406ZM354.3 41.1875L352.34 41.5848L352.341 41.59L354.3 41.1875ZM339.347 32.2812L338.452 30.4924L338.444 30.4965L338.436 30.5008L339.347 32.2812ZM335.925 35.5156L334.239 34.4396L334.231 34.4524L334.223 34.4654L335.925 35.5156ZM333.862 41.1875L331.902 40.7902L331.9 40.8005L331.898 40.8108L333.862 41.1875ZM339.441 77.5625L338.53 79.343L338.554 79.3556L338.579 79.3675L339.441 77.5625ZM348.816 77.5625L349.693 79.3596L349.702 79.3555L349.71 79.3514L348.816 77.5625ZM366.644 49.5781V60.9687H370.644V49.5781H366.644ZM366.644 60.9687C366.644 65.6225 366.069 69.623 364.962 73.0024L368.763 74.2476C370.031 70.377 370.644 65.94 370.644 60.9687H366.644ZM364.959 73.0124C363.874 76.3849 362.342 79.1467 360.396 81.3467L363.392 83.997C365.758 81.3221 367.539 78.0526 368.766 74.2376L364.959 73.0124ZM360.395 81.348C358.48 83.5165 356.161 85.1491 353.413 86.2537L354.905 89.965C358.22 88.6322 361.058 86.6397 363.393 83.9958L360.395 81.348ZM353.407 86.2564C350.675 87.3663 347.606 87.9375 344.175 87.9375V91.9375C348.056 91.9375 351.644 91.2899 354.912 89.9623L353.407 86.2564ZM344.175 87.9375C340.744 87.9375 337.657 87.3664 334.89 86.2537L333.398 89.965C336.693 91.2898 340.293 91.9375 344.175 91.9375V87.9375ZM334.896 86.2564C332.175 85.1508 329.829 83.5123 327.842 81.3265L324.883 84.0172C327.271 86.644 330.112 88.6304 333.391 89.9623L334.896 86.2564ZM327.86 81.3467C325.911 79.1426 324.362 76.3754 323.246 72.9975L319.448 74.2525C320.707 78.0621 322.502 81.3262 324.864 83.997L327.86 81.3467ZM323.247 73.0024C322.14 69.623 321.566 65.6225 321.566 60.9687H317.566C317.566 65.94 318.178 70.377 319.446 74.2476L323.247 73.0024ZM321.566 60.9687V49.5781H317.566V60.9687H321.566ZM321.566 49.5781C321.566 44.7902 322.127 40.6877 323.208 37.239L319.392 36.0422C318.16 39.9685 317.566 44.4911 317.566 49.5781H321.566ZM323.21 37.2344C324.297 33.7381 325.844 30.9075 327.813 28.6857L324.819 26.033C322.412 28.7488 320.616 32.1057 319.39 36.0468L323.21 37.2344ZM327.821 28.6764C329.811 26.4015 332.155 24.7101 334.866 23.5805L333.328 19.8882C330.039 21.2586 327.195 23.3173 324.81 26.0424L327.821 28.6764ZM334.882 23.5737C337.606 22.4106 340.662 21.8125 344.081 21.8125V17.8125C340.188 17.8125 336.588 18.4957 333.311 19.8951L334.882 23.5737ZM344.081 21.8125C347.5 21.8125 350.557 22.4106 353.28 23.5737L354.851 19.8951C351.574 18.4957 347.975 17.8125 344.081 17.8125V21.8125ZM353.296 23.5805C356.007 24.7101 358.351 26.4015 360.342 28.6764L363.352 26.0424C360.968 23.3173 358.124 21.2586 354.835 19.8882L353.296 23.5805ZM360.35 28.6857C362.319 30.9075 363.866 33.7381 364.953 37.2344L368.772 36.0468C367.547 32.1057 365.75 28.7488 363.344 26.033L360.35 28.6857ZM364.959 37.2537C366.068 40.6973 366.644 44.7945 366.644 49.5781H370.644C370.644 44.4867 370.032 39.9589 368.766 36.0276L364.959 37.2537ZM357.003 60.9687V49.4844H353.003V60.9687H357.003ZM357.003 49.4844C357.003 46.1479 356.763 43.2391 356.259 40.7849L352.341 41.59C352.774 43.6984 353.003 46.3209 353.003 49.4844H357.003ZM356.26 40.7902C355.759 38.3165 354.984 36.1749 353.876 34.4396L350.505 36.5917C351.272 37.7938 351.904 39.4335 352.34 41.5848L356.26 40.7902ZM353.876 34.4396C352.778 32.7182 351.386 31.3737 349.68 30.5008L347.858 34.0617C348.839 34.5638 349.728 35.3755 350.505 36.5917L353.876 34.4396ZM349.68 30.5008C348.007 29.6451 346.122 29.25 344.081 29.25V33.25C345.603 33.25 346.843 33.5424 347.858 34.0617L349.68 30.5008ZM344.081 29.25C342.039 29.25 340.146 29.6456 338.452 30.4924L340.241 34.0701C341.298 33.5419 342.561 33.25 344.081 33.25V29.25ZM338.436 30.5008C336.73 31.3737 335.338 32.7182 334.239 34.4396L337.611 36.5917C338.387 35.3755 339.276 34.5638 340.258 34.0617L338.436 30.5008ZM334.223 34.4654C333.157 36.1937 332.402 38.3256 331.902 40.7902L335.823 41.5848C336.261 39.4244 336.881 37.7751 337.627 36.5658L334.223 34.4654ZM331.898 40.8108C331.43 43.2543 331.206 46.1538 331.206 49.4844H335.206C335.206 46.3149 335.42 43.6832 335.827 41.5642L331.898 40.8108ZM331.206 49.4844V60.9687H335.206V49.4844H331.206ZM331.206 60.9687C331.206 64.1846 331.447 67.003 331.953 69.3978L335.866 68.571C335.435 66.5282 335.206 64.0029 335.206 60.9687H331.206ZM331.953 69.3978C332.457 71.7851 333.237 73.855 334.355 75.5313L337.683 73.3125C336.925 72.1763 336.299 70.6212 335.866 68.571L331.953 69.3978ZM334.355 75.5313C335.459 77.1872 336.847 78.4819 338.53 79.343L340.352 75.782C339.347 75.2681 338.454 74.469 337.683 73.3125L334.355 75.5313ZM338.579 79.3675C340.265 80.1721 342.146 80.5469 344.175 80.5469V76.5469C342.642 76.5469 341.366 76.2654 340.302 75.7575L338.579 79.3675ZM344.175 80.5469C346.178 80.5469 348.033 80.1703 349.693 79.3596L347.938 75.7654C346.91 76.2672 345.672 76.5469 344.175 76.5469V80.5469ZM349.71 79.3514C351.434 78.4895 352.836 77.1855 353.919 75.5053L350.556 73.3385C349.827 74.4708 348.947 75.2605 347.921 75.7736L349.71 79.3514ZM353.919 75.5053C354.994 73.8358 355.754 71.7755 356.257 69.3978L352.343 68.571C351.908 70.6307 351.293 72.1955 350.556 73.3385L353.919 75.5053ZM356.257 69.3978C356.763 67.003 357.003 64.1846 357.003 60.9687H353.003C353.003 64.0029 352.775 66.5282 352.343 68.571L356.257 69.3978ZM421.92 73.625L420.019 73.0024L420.016 73.0124L421.92 73.625ZM416.951 82.6719L415.453 81.3467L415.452 81.348L416.951 82.6719ZM409.217 88.1094L408.471 86.2537L408.464 86.2564L409.217 88.1094ZM389.201 88.1094L388.448 89.9623L388.455 89.965L389.201 88.1094ZM381.42 82.6719L379.922 83.997L379.931 84.0072L379.94 84.0172L381.42 82.6719ZM376.404 73.625L374.504 74.2476L374.505 74.2525L376.404 73.625ZM376.357 36.6406L378.266 37.239L378.267 37.2344L376.357 36.6406ZM381.373 27.3594L382.87 28.6858L382.878 28.6764L381.373 27.3594ZM389.154 21.7344L389.924 23.5805L389.932 23.5771L389.94 23.5737L389.154 21.7344ZM409.123 21.7344L408.338 23.5737L408.346 23.5771L408.354 23.5805L409.123 21.7344ZM416.904 27.3594L415.399 28.6764L415.407 28.6857L416.904 27.3594ZM421.92 36.6406L420.01 37.2344L420.013 37.2441L420.016 37.2537L421.92 36.6406ZM409.357 41.1875L407.397 41.5848L407.398 41.59L409.357 41.1875ZM394.404 32.2812L393.51 30.4924L393.502 30.4965L393.493 30.5008L394.404 32.2812ZM390.982 35.5156L389.297 34.4396L389.288 34.4524L389.28 34.4654L390.982 35.5156ZM388.92 41.1875L386.96 40.7902L386.958 40.8005L386.956 40.8108L388.92 41.1875ZM394.498 77.5625L393.587 79.343L393.612 79.3556L393.637 79.3675L394.498 77.5625ZM403.873 77.5625L404.751 79.3596L404.759 79.3555L404.768 79.3514L403.873 77.5625ZM421.701 49.5781V60.9687H425.701V49.5781H421.701ZM421.701 60.9687C421.701 65.6225 421.126 69.623 420.019 73.0024L423.821 74.2476C425.089 70.377 425.701 65.94 425.701 60.9687H421.701ZM420.016 73.0124C418.931 76.3849 417.399 79.1467 415.453 81.3467L418.449 83.997C420.815 81.3221 422.596 78.0526 423.824 74.2376L420.016 73.0124ZM415.452 81.348C413.537 83.5165 411.218 85.1491 408.471 86.2537L409.963 89.965C413.278 88.6322 416.115 86.6397 418.45 83.9958L415.452 81.348ZM408.464 86.2564C405.732 87.3663 402.664 87.9375 399.232 87.9375V91.9375C403.114 91.9375 406.702 91.2899 409.97 89.9623L408.464 86.2564ZM399.232 87.9375C395.801 87.9375 392.715 87.3664 389.947 86.2537L388.455 89.965C391.75 91.2898 395.351 91.9375 399.232 91.9375V87.9375ZM389.954 86.2564C387.232 85.1508 384.887 83.5123 382.9 81.3265L379.94 84.0172C382.328 86.644 385.17 88.6304 388.448 89.9623L389.954 86.2564ZM382.918 81.3467C380.968 79.1426 379.42 76.3754 378.303 72.9975L374.505 74.2525C375.764 78.0621 377.559 81.3262 379.922 83.997L382.918 81.3467ZM378.305 73.0024C377.198 69.623 376.623 65.6225 376.623 60.9687H372.623C372.623 65.94 373.236 70.377 374.504 74.2476L378.305 73.0024ZM376.623 60.9687V49.5781H372.623V60.9687H376.623ZM376.623 49.5781C376.623 44.7902 377.184 40.6877 378.266 37.239L374.449 36.0422C373.218 39.9685 372.623 44.4911 372.623 49.5781H376.623ZM378.267 37.2344C379.354 33.7381 380.901 30.9075 382.87 28.6857L379.876 26.033C377.47 28.7488 375.673 32.1057 374.448 36.0468L378.267 37.2344ZM382.878 28.6764C384.869 26.4015 387.213 24.7101 389.924 23.5805L388.385 19.8882C385.096 21.2586 382.252 23.3173 379.868 26.0424L382.878 28.6764ZM389.94 23.5737C392.663 22.4106 395.72 21.8125 399.139 21.8125V17.8125C395.245 17.8125 391.645 18.4957 388.369 19.8951L389.94 23.5737ZM399.139 21.8125C402.558 21.8125 405.614 22.4106 408.338 23.5737L409.909 19.8951C406.632 18.4957 403.032 17.8125 399.139 17.8125V21.8125ZM408.354 23.5805C411.065 24.7101 413.409 26.4015 415.399 28.6764L418.409 26.0424C416.025 23.3173 413.181 21.2586 409.892 19.8882L408.354 23.5805ZM415.407 28.6857C417.376 30.9075 418.923 33.7381 420.01 37.2344L423.83 36.0468C422.604 32.1057 420.808 28.7488 418.401 26.033L415.407 28.6857ZM420.016 37.2537C421.125 40.6973 421.701 44.7945 421.701 49.5781H425.701C425.701 44.4867 425.09 39.9589 423.824 36.0276L420.016 37.2537ZM412.061 60.9687V49.4844H408.061V60.9687H412.061ZM412.061 49.4844C412.061 46.1479 411.821 43.2391 411.317 40.7849L407.398 41.59C407.832 43.6984 408.061 46.3209 408.061 49.4844H412.061ZM411.318 40.7902C410.816 38.3165 410.042 36.1749 408.934 34.4396L405.562 36.5917C406.33 37.7938 406.961 39.4335 407.397 41.5848L411.318 40.7902ZM408.934 34.4396C407.835 32.7182 406.443 31.3737 404.737 30.5008L402.915 34.0617C403.897 34.5638 404.786 35.3755 405.562 36.5917L408.934 34.4396ZM404.737 30.5008C403.065 29.6451 401.18 29.25 399.139 29.25V33.25C400.66 33.25 401.9 33.5424 402.915 34.0617L404.737 30.5008ZM399.139 29.25C397.096 29.25 395.204 29.6456 393.51 30.4924L395.299 34.0701C396.355 33.5419 397.619 33.25 399.139 33.25V29.25ZM393.493 30.5008C391.787 31.3737 390.395 32.7182 389.297 34.4396L392.668 36.5917C393.445 35.3755 394.334 34.5638 395.315 34.0617L393.493 30.5008ZM389.28 34.4654C388.214 36.1937 387.459 38.3256 386.96 40.7902L390.88 41.5848C391.318 39.4244 391.938 37.7751 392.685 36.5658L389.28 34.4654ZM386.956 40.8108C386.487 43.2543 386.264 46.1538 386.264 49.4844H390.264C390.264 46.3149 390.478 43.6832 390.884 41.5642L386.956 40.8108ZM386.264 49.4844V60.9687H390.264V49.4844H386.264ZM386.264 60.9687C386.264 64.1846 386.504 67.003 387.01 69.3978L390.924 68.571C390.492 66.5282 390.264 64.0029 390.264 60.9687H386.264ZM387.01 69.3978C387.514 71.7851 388.295 73.855 389.412 75.5313L392.74 73.3125C391.983 72.1763 391.357 70.6212 390.924 68.571L387.01 69.3978ZM389.412 75.5313C390.516 77.1872 391.904 78.4819 393.587 79.343L395.409 75.782C394.405 75.2681 393.511 74.469 392.74 73.3125L389.412 75.5313ZM393.637 79.3675C395.323 80.1721 397.203 80.5469 399.232 80.5469V76.5469C397.699 76.5469 396.424 76.2654 395.36 75.7575L393.637 79.3675ZM399.232 80.5469C401.235 80.5469 403.091 80.1703 404.751 79.3596L402.995 75.7654C401.968 76.2672 400.73 76.5469 399.232 76.5469V80.5469ZM404.768 79.3514C406.491 78.4895 407.893 77.1855 408.976 75.5053L405.614 73.3385C404.884 74.4708 404.005 75.2605 402.979 75.7736L404.768 79.3514ZM408.976 75.5053C410.052 73.8358 410.812 71.7755 411.314 69.3978L407.401 68.571C406.965 70.6307 406.35 72.1955 405.614 73.3385L408.976 75.5053ZM411.314 69.3978C411.82 67.003 412.061 64.1846 412.061 60.9687H408.061C408.061 64.0029 407.832 66.5282 407.401 68.571L411.314 69.3978ZM436.571 89L434.571 88.9835L434.555 91H436.571V89ZM436.665 77.6562V75.6562H434.681L434.665 77.6397L436.665 77.6562ZM460.243 70.25L458.33 69.6667L458.327 69.6775L458.324 69.6882L460.243 70.25ZM460.806 41.5156L458.838 41.8758L458.839 41.8808L460.806 41.5156ZM458.743 36.1719L457.108 37.3238L457.114 37.3327L457.121 37.3415L458.743 36.1719ZM436.337 32.1406H434.337V34.1406H436.337V32.1406ZM436.337 20.75V18.75H434.337V20.75H436.337ZM467.837 28.2969L466.377 29.6642L466.386 29.6734L467.837 28.2969ZM467.837 81.5L466.377 80.1327L466.377 80.1334L467.837 81.5ZM444.54 20.75H446.54V18.75H444.54V20.75ZM444.54 89V91H446.54V89H444.54ZM430.806 89H428.806V91H430.806V89ZM430.806 20.75V18.75H428.806V20.75H430.806ZM448.618 87H436.571V91H448.618V87ZM438.571 89.0165L438.665 77.6728L434.665 77.6397L434.571 88.9835L438.571 89.0165ZM436.665 79.6562H448.618V75.6562H436.665V79.6562ZM448.618 79.6562C452.132 79.6562 455.143 79.0326 457.435 77.5564L455.27 74.1936C453.874 75.0924 451.729 75.6562 448.618 75.6562V79.6562ZM457.435 77.5564C459.767 76.0549 461.308 73.7312 462.163 70.8118L458.324 69.6882C457.678 71.8938 456.626 73.3201 455.27 74.1936L457.435 77.5564ZM462.156 70.8332C463.018 68.0076 463.415 64.4296 463.415 60.1719H459.415C459.415 64.2267 459.031 67.3674 458.33 69.6667L462.156 70.8332ZM463.415 60.1719V49.5312H459.415V60.1719H463.415ZM463.415 49.5312C463.415 46.2989 463.208 43.4967 462.772 41.1504L458.839 41.8808C459.216 43.9095 459.415 46.4511 459.415 49.5312H463.415ZM462.773 41.1554C462.331 38.7445 461.559 36.6575 460.365 35.0023L457.121 37.3415C457.865 38.3737 458.467 39.8492 458.838 41.8758L462.773 41.1554ZM460.378 35.02C459.178 33.3168 457.567 32.0645 455.601 31.2705L454.104 34.9795C455.388 35.498 456.371 36.2769 457.108 37.3238L460.378 35.02ZM455.601 31.2705C453.668 30.4895 451.379 30.1406 448.806 30.1406V34.1406C451.045 34.1406 452.787 34.448 454.104 34.9795L455.601 31.2705ZM448.806 30.1406H436.337V34.1406H448.806V30.1406ZM438.337 32.1406V20.75H434.337V32.1406H438.337ZM436.337 22.75H448.806V18.75H436.337V22.75ZM448.806 22.75C452.524 22.75 455.847 23.3544 458.8 24.5301L460.28 20.8137C456.796 19.4268 452.962 18.75 448.806 18.75V22.75ZM458.8 24.5301C461.753 25.7053 464.271 27.4152 466.377 29.6641L469.296 26.9296C466.778 24.241 463.765 22.201 460.28 20.8137L458.8 24.5301ZM466.386 29.6734C468.479 31.8792 470.123 34.6397 471.292 38.0008L475.07 36.6867C473.739 32.8603 471.82 29.5895 469.288 26.9204L466.386 29.6734ZM471.292 38.0008C472.455 41.3446 473.056 45.21 473.056 49.625H477.056C477.056 44.8525 476.406 40.5303 475.07 36.6867L471.292 38.0008ZM473.056 49.625V60.1719H477.056V49.625H473.056ZM473.056 60.1719C473.056 64.6203 472.454 68.483 471.293 71.7909L475.068 73.1153C476.407 69.2983 477.056 64.9734 477.056 60.1719H473.056ZM471.293 71.7909C470.125 75.1218 468.479 77.8891 466.377 80.1327L469.296 82.8673C471.82 80.1734 473.737 76.9094 475.068 73.1153L471.293 71.7909ZM466.377 80.1334C464.307 82.3443 461.794 84.0398 458.806 85.2175L460.273 88.9388C463.786 87.5539 466.804 85.5307 469.297 82.8666L466.377 80.1334ZM458.806 85.2175C455.823 86.3936 452.436 87 448.618 87V91C452.862 91 456.757 90.3251 460.273 88.9388L458.806 85.2175ZM442.54 20.75V89H446.54V20.75H442.54ZM444.54 87H430.806V91H444.54V87ZM432.806 89V20.75H428.806V89H432.806ZM430.806 22.75H444.54V18.75H430.806V22.75Z" fill="#007F73" mask="url(#path-3-outside-2_34_15)"/>
</svg>